{
 "cells": [
  {
   "cell_type": "markdown",
   "id": "5f5e621d",
   "metadata": {},
   "source": [
    "Then, we add the summary of the video by the transcription and the ai agent supported by youtube"
   ]
  },
  {
   "cell_type": "code",
   "execution_count": 5,
   "id": "b48167dd",
   "metadata": {},
   "outputs": [
    {
     "name": "stderr",
     "output_type": "stream",
     "text": [
      "/Users/lyfan/Library/Python/3.9/lib/python/site-packages/urllib3/__init__.py:35: NotOpenSSLWarning: urllib3 v2 only supports OpenSSL 1.1.1+, currently the 'ssl' module is compiled with 'LibreSSL 2.8.3'. See: https://github.com/urllib3/urllib3/issues/3020\n",
      "  warnings.warn(\n"
     ]
    }
   ],
   "source": [
    "import os\n",
    "import json\n",
    "import random\n",
    "import shutil\n",
    "import whisper\n",
    "from yt_dlp import YoutubeDL\n",
    "import subprocess\n",
    "import cv2\n",
    "import base64\n",
    "import isodate\n",
    "def parse_duration_iso8601(duration_str):\n",
    "    try:\n",
    "        duration = isodate.parse_duration(duration_str)\n",
    "        return duration.total_seconds()\n",
    "    except Exception:\n",
    "        return None\n",
    "\n",
    "def get_all_video_ids_with_duration_limit(base_dir, extension=\".json\", max_duration=120):\n",
    "    video_ids = []\n",
    "    for category in os.listdir(base_dir):\n",
    "        category_dir = os.path.join(base_dir, category)\n",
    "        if not os.path.isdir(category_dir):\n",
    "            continue\n",
    "        for filename in os.listdir(category_dir):\n",
    "            if filename.endswith(extension):\n",
    "                file_path = os.path.join(category_dir, filename)\n",
    "                try:\n",
    "                    with open(file_path, \"r\", encoding=\"utf-8\") as f:\n",
    "                        data = json.load(f)\n",
    "                    duration_str = data.get(\"contentDetails\", {}).get(\"duration\", None)\n",
    "                    duration = parse_duration_iso8601(duration_str) if duration_str else None\n",
    "                    if duration is not None and duration < max_duration:\n",
    "                        video_id = os.path.splitext(filename)[0]\n",
    "                        video_ids.append(video_id)\n",
    "                except Exception as e:\n",
    "                    print(f\"Error reading {file_path}: {e}\")\n",
    "    return video_ids\n",
    "\n",
    "def sample_video_ids_from_dir(base_dir, k=200, output_path=\"sampled_100_ids.json\"):\n",
    "    all_ids = get_all_video_ids_with_duration_limit(base_dir,max_duration=180)\n",
    "    sampled = random.sample(all_ids, min(k, len(all_ids)))\n",
    "\n",
    "    with open(output_path, \"w\", encoding=\"utf-8\") as f:\n",
    "        json.dump(sampled, f, indent=2)\n",
    "\n",
    "    print(f\"Found {len(all_ids)} videos. Sampled {len(sampled)} IDs to {output_path}.\")\n",
    "    return sampled\n"
   ]
  },
  {
   "cell_type": "code",
   "execution_count": 9,
   "id": "1d2ccd2e",
   "metadata": {},
   "outputs": [],
   "source": [
    "from yt_dlp import YoutubeDL\n",
    "import os\n",
    "import glob\n",
    "\n",
    "def is_video_available(video_id):\n",
    "    url = f\"https://www.youtube.com/watch?v={video_id}\"\n",
    "    ydl_opts = {'quiet': True, 'noplaylist': True, 'skip_download': True}\n",
    "\n",
    "    try:\n",
    "        with YoutubeDL(ydl_opts) as ydl:\n",
    "            info = ydl.extract_info(url, download=False)\n",
    "            return info.get(\"is_live\", False) is False\n",
    "    except Exception:\n",
    "        return False\n",
    "\n",
    "def download_low_quality_video(video_id, output_dir):\n",
    "    os.makedirs(output_dir, exist_ok=True)\n",
    "    url = f\"https://www.youtube.com/watch?v={video_id}\"\n",
    "    output_template = os.path.join(output_dir, f\"{video_id}.%(ext)s\")\n",
    "\n",
    "    if not is_video_available(video_id):\n",
    "        print(f\"[SKIPPED] {video_id} is unavailable.\")\n",
    "        return False\n",
    "\n",
    "    ydl_opts = {\n",
    "        'quiet': True,\n",
    "        'noprogress': True,\n",
    "        'format': 'worstvideo[ext=mp4]+worstaudio[ext=m4a]/worst[ext=mp4]',\n",
    "        'outtmpl': output_template,\n",
    "        'merge_output_format': 'mp4',\n",
    "        'noplaylist': True,\n",
    "        'retries': 3,\n",
    "        'force_generic_extractor': False,\n",
    "        'ignoreerrors': False,\n",
    "        'postprocessors': [{\n",
    "            'key': 'FFmpegVideoConvertor',\n",
    "            'preferedformat': 'mp4'\n",
    "        }]\n",
    "    }\n",
    "\n",
    "    try:\n",
    "        with YoutubeDL(ydl_opts) as ydl:\n",
    "            print(f\"[DOWNLOADING LOW QUALITY] {video_id}...\")\n",
    "            ydl.download([url])\n",
    "\n",
    "        matches = glob.glob(os.path.join(output_dir, f\"{video_id}.*\"))\n",
    "        if matches:\n",
    "            print(f\"[SUCCESS] Downloaded {video_id}\")\n",
    "            return True\n",
    "        else:\n",
    "            print(f\"[ERROR] No file found for {video_id}\")\n",
    "            return False\n",
    "\n",
    "    except Exception as e:\n",
    "        print(f\"[ERROR] Failed to download {video_id}: {e}\")\n",
    "        return False\n",
    "\n",
    "\n",
    "def get_frame_every_20s(video_path, output_dir):\n",
    "    os.makedirs(output_dir, exist_ok=True)\n",
    "    cap = cv2.VideoCapture(video_path)\n",
    "    if not cap.isOpened():\n",
    "        print(f\"[ERROR] Failed to open video: {video_path}\")\n",
    "        return []\n",
    "\n",
    "    fps = cap.get(cv2.CAP_PROP_FPS)\n",
    "    total_frames = int(cap.get(cv2.CAP_PROP_FRAME_COUNT))\n",
    "    duration = int(total_frames / fps)\n",
    "\n",
    "    saved_paths = []\n",
    "    for t in range(0, duration, 20):\n",
    "        frame_number = int(t * fps)\n",
    "        cap.set(cv2.CAP_PROP_POS_FRAMES, frame_number)\n",
    "        success, frame = cap.read()\n",
    "        if success:\n",
    "            frame_path = os.path.join(output_dir, f\"frame_{t:04d}.jpg\")\n",
    "            cv2.imwrite(frame_path, frame)\n",
    "            saved_paths.append((t, frame_path))\n",
    "    return saved_paths\n",
    "\n",
    "def generate_captions_with_videollama(frame_dir, output_json_path):\n",
    "    import openai\n",
    "    import base64\n",
    "    import json\n",
    "    import os\n",
    "  \n",
    "    openai.api_key = \"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\" \n",
    "\n",
    "    def encode_img(img_path):\n",
    "        with open(img_path, \"rb\") as f:\n",
    "            return base64.b64encode(f.read()).decode(\"utf-8\")\n",
    "\n",
    "    def batch_get_image_captions(img_paths):\n",
    "        images = [{\"type\": \"image_url\", \"image_url\": {\"url\": f\"data:image/jpeg;base64,{encode_img(p)}\"}} for p in img_paths]\n",
    "        prompt = [{\"type\": \"text\", \"text\": \"Give a one-sentence caption for each image in order. Return a list of captions.\"}] + images\n",
    "        response = openai.chat.completions.create(\n",
    "            model=\"gpt-4o\",\n",
    "            messages=[{\"role\": \"user\", \"content\": prompt}],\n",
    "            max_tokens=500\n",
    "        )\n",
    "        return response.choices[0].message.content.strip().split(\"\\n\")\n",
    "\n",
    "    frame_files = sorted([\n",
    "        f for f in os.listdir(frame_dir)\n",
    "        if f.lower().endswith((\".jpg\", \".jpeg\", \".png\"))\n",
    "    ])\n",
    "    batch_size = 6\n",
    "    captions = {}\n",
    "    for i in range(0, len(frame_files), batch_size):\n",
    "        batch = frame_files[i:i + batch_size]\n",
    "        batch_paths = [os.path.join(frame_dir, f) for f in batch]\n",
    "        try:\n",
    "            batch_captions = batch_get_image_captions(batch_paths)\n",
    "            for fname, cap in zip(batch, batch_captions):\n",
    "                cap_clean = cap.strip(\"-•123. \").strip()\n",
    "                captions[fname] = cap_clean\n",
    "                print(f\"{fname}: {cap_clean}\")\n",
    "        except Exception as e:\n",
    "            print(f\"[ERROR] Batch {i} failed: {e}\")\n",
    "\n",
    "    with open(output_json_path, \"w\", encoding=\"utf-8\") as f:\n",
    "        json.dump(captions, f, ensure_ascii=False, indent=2)\n",
    "    print(f\"Saved captions to {output_json_path}\")\n",
    "\n",
    "from youtube_transcript_api import YouTubeTranscriptApi, TranscriptsDisabled, NoTranscriptFound\n",
    "import whisper\n",
    "def get_transcript_or_whisper(video_id, video_path, whisper_model=\"base\"):\n",
    "    \"\"\"\n",
    "    Try to get YouTube transcript first.\n",
    "    If not available, fall back to Whisper transcription.\n",
    "    \"\"\"\n",
    "    try:\n",
    "        transcript = YouTubeTranscriptApi.get_transcript(video_id, languages=[\"en\"])\n",
    "        grouped = {}\n",
    "        for seg in transcript:\n",
    "            t = int(seg['start']) // 10 * 10\n",
    "            grouped.setdefault(t, []).append(seg['text'])\n",
    "\n",
    "        grouped_transcript = [\n",
    "            {\"start\": t, \"end\": t + 20, \"text\": \" \".join(lines)}\n",
    "            for t, lines in sorted(grouped.items())\n",
    "        ]\n",
    "        print(f\"[INFO] YouTube transcript used for {video_id}\")\n",
    "        return grouped_transcript\n",
    "\n",
    "    except (TranscriptsDisabled, NoTranscriptFound):\n",
    "        print(f\"[WARN] No YouTube transcript found for {video_id}, falling back to Whisper...\")\n",
    "        model = whisper.load_model(whisper_model)\n",
    "        result = model.transcribe(video_path, verbose=False, word_timestamps=False)\n",
    "        segments = result.get(\"segments\", [])\n",
    "        grouped = {}\n",
    "        for seg in segments:\n",
    "            t = int(seg['start']) // 10 * 10\n",
    "            grouped.setdefault(t, []).append(seg['text'])\n",
    "\n",
    "        grouped_transcript = [\n",
    "            {\"start\": t, \"end\": t + 20, \"text\": \" \".join(lines)}\n",
    "            for t, lines in sorted(grouped.items())\n",
    "        ]\n",
    "        print(f\"[INFO] Whisper transcript used for {video_id}\")\n",
    "        return grouped_transcript"
   ]
  },
  {
   "cell_type": "code",
   "execution_count": 10,
   "id": "4ba2651e",
   "metadata": {},
   "outputs": [
    {
     "name": "stderr",
     "output_type": "stream",
     "text": [
      "/Users/lyfan/Library/Python/3.9/lib/python/site-packages/librosa/util/files.py:10: UserWarning: pkg_resources is deprecated as an API. See https://setuptools.pypa.io/en/latest/pkg_resources.html. The pkg_resources package is slated for removal as early as 2025-11-30. Refrain from using this package or pin to Setuptools<81.\n",
      "  from pkg_resources import resource_filename\n"
     ]
    }
   ],
   "source": [
    "import os\n",
    "import subprocess\n",
    "import librosa\n",
    "import openai\n",
    "\n",
    "def extract_audio_from_video(video_path, audio_path):\n",
    "    cmd = f'ffmpeg -y -i \"{video_path}\" -vn -acodec pcm_s16le -ar 44100 -ac 2 \"{audio_path}\"'\n",
    "    print(f\"Extracting audio: {cmd}\") \n",
    "    subprocess.run(cmd, shell=True, check=True)\n",
    "\n",
    "def separate_vocals_bgm_demucs(audio_path, output_dir):\n",
    "    import os\n",
    "    import subprocess\n",
    "    os.makedirs(output_dir, exist_ok=True)\n",
    "    if not os.path.exists(audio_path):\n",
    "        raise FileNotFoundError(f\"not_exit: {audio_path}\")\n",
    "    cmd = f'demucs --two-stems=vocals \"{audio_path}\" -o \"{output_dir}\"'\n",
    "    print(f\"Running demucs command: {cmd}\")\n",
    "    subprocess.run(cmd, shell=True, check=True)\n",
    "    vocals_path = None\n",
    "    bgm_path = None\n",
    "    for root, dirs, files in os.walk(output_dir):\n",
    "        if \"vocals.wav\" in files and \"no_vocals.wav\" in files:\n",
    "            vocals_path = os.path.join(root, \"vocals.wav\")\n",
    "            bgm_path = os.path.join(root, \"no_vocals.wav\")\n",
    "            break\n",
    "    if not vocals_path or not bgm_path:\n",
    "        for root, dirs, files in os.walk(output_dir):\n",
    "            print(\"DEBUG:\", root, files)\n",
    "        raise FileNotFoundError(f\"[ERROR] Demucs output not found for {audio_path}\")\n",
    "    return vocals_path, bgm_path\n",
    "def extract_audio_features(audio_path):\n",
    "    y, sr = librosa.load(audio_path, sr=None, mono=True)\n",
    "    tempo, _ = librosa.beat.beat_track(y=y, sr=sr)\n",
    "    centroid = float(librosa.feature.spectral_centroid(y=y, sr=sr).mean())\n",
    "    zcr = float(librosa.feature.zero_crossing_rate(y).mean())\n",
    "    rms = float(librosa.feature.rms(y=y).mean())\n",
    "    chroma = float(librosa.feature.chroma_stft(y=y, sr=sr).mean())\n",
    "    return {\n",
    "        \"tempo\": round(float(tempo), 2),\n",
    "        \"spectral_centroid\": round(centroid, 2),\n",
    "        \"zero_crossing_rate\": round(zcr, 4),\n",
    "        \"rms_energy\": round(rms, 4),\n",
    "        \"chroma_stft\": round(chroma, 4),\n",
    "    }\n",
    "\n",
    "def classify_bgm_with_gpt(audio_path):\n",
    "    API_KEY = \"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\"\n",
    "    openai.api_key = API_KEY\n",
    "    features = extract_audio_features(audio_path)\n",
    "    prompt = f\"\"\"Given the following audio features extracted from a video's background music:\\n- Tempo: {features['tempo']} BPM\\n- Spectral Centroid: {features['spectral_centroid']}\\n- Zero Crossing Rate: {features['zero_crossing_rate']}\\n- RMS Energy: {features['rms_energy']}\\n- Chroma STFT: {features['chroma_stft']}\\n\\nDescribe the likely style of the background music in one concise sentence.\\nFor example, you may say \"lo-fi instrumental\", \"upbeat dance music\", or \"slow orchestral background music\".\\n\"\"\"\n",
    "    client = openai.OpenAI(api_key=API_KEY)\n",
    "    response = client.chat.completions.create(\n",
    "        model=\"gpt-4\",\n",
    "        messages=[{\"role\": \"user\", \"content\": prompt}],\n",
    "        temperature=0.5,\n",
    "        max_tokens=60\n",
    "    )\n",
    "    return response.choices[0].message.content.strip()"
   ]
  },
  {
   "cell_type": "code",
   "execution_count": 11,
   "id": "c3665cc6",
   "metadata": {},
   "outputs": [],
   "source": [
    "def process_video(video_id, video_dir, work_dir, whisper_model=\"base\"):\n",
    "    \"\"\"\n",
    "    Process a single video:\n",
    "    - Transcribe speech\n",
    "    - Separate BGM\n",
    "    - Classify BGM style using GPT\n",
    "    - Extract frames\n",
    "    - Generate captions via VideoLLaMA\n",
    "    \"\"\"\n",
    "    print(f\"[INFO] Downloading video: {video_id}\")\n",
    "    success = download_low_quality_video(video_id, video_dir)\n",
    "    video_path = os.path.join(video_dir, f\"{video_id}.mp4\")\n",
    "\n",
    "    if not success or not os.path.exists(video_path):\n",
    "        raise FileNotFoundError(f\"Video download failed or file not found: {video_path}\")\n",
    "    \n",
    "    out_dir = os.path.join(work_dir, video_id)\n",
    "    os.makedirs(out_dir, exist_ok=True)\n",
    "\n",
    "    try:\n",
    "       transcription_segments = get_transcript_or_whisper(video_id=video_id, video_path=video_path, whisper_model=whisper_model)\n",
    "\n",
    "    except Exception as e:\n",
    "        raise RuntimeError(f\"[{video_id}] Whisper transcription failed: {e}\")   \n",
    "    try:\n",
    "        audio_path = os.path.join(out_dir, \"audio.wav\")\n",
    "        extract_audio_from_video(video_path, audio_path)\n",
    "        vocals_path, bgm_path = separate_vocals_bgm_demucs(audio_path, out_dir)\n",
    "        bgm_style = classify_bgm_with_gpt(bgm_path)\n",
    "    except Exception as e:\n",
    "        raise RuntimeError(f\"[{video_id}] BGM extraction/classification failed: {e}\")\n",
    "    \n",
    "    try:\n",
    "        frame_dir = os.path.join(out_dir, \"frames\")\n",
    "        frame_infos = get_frame_every_20s(video_path, frame_dir)\n",
    "    except Exception as e:\n",
    "        raise RuntimeError(f\"[{video_id}] Frame extraction failed: {e}\")\n",
    "    \n",
    "    try:\n",
    "        caption_json = os.path.join(out_dir, \"videollama_captions.json\")\n",
    "        generate_captions_with_videollama(frame_dir, caption_json)\n",
    "        with open(caption_json, \"r\", encoding=\"utf-8\") as f:\n",
    "            llama_captions = json.load(f)\n",
    "    except Exception as e:\n",
    "        raise RuntimeError(f\"[{video_id}] Caption generation or loading failed: {e}\")\n",
    "    \n",
    "    caption_segments = []\n",
    "    for t, frame_path in frame_infos:\n",
    "        summary = llama_captions.get(os.path.basename(frame_path), \"[No Caption]\")\n",
    "        caption_segments.append({\"start\": t, \"end\": t+10, \"summary\": summary})\n",
    "\n",
    "    return {\n",
    "        \"video_id\": video_id,\n",
    "        \"captions\": caption_segments,\n",
    "        \"transcription_segments\": transcription_segments,\n",
    "        \"bgm_style\": bgm_style\n",
    "    }\n",
    "def batch_process_videos(video_ids, video_dir, work_dir, output_json_path, whisper_model=\"base\", max_success=100):\n",
    "    results = []\n",
    "    idx = 0\n",
    "    while len(results) < max_success and idx < len(video_ids):\n",
    "        video_id = video_ids[idx]\n",
    "        print(f\"\\n=== Processing {idx + 1}/{len(video_ids)}: {video_id} ===\")\n",
    "        try:\n",
    "            result = process_video(video_id, video_dir, work_dir, whisper_model)\n",
    "            results.append(result)\n",
    "        except Exception as e:\n",
    "            print(f\"[ABORT] Processing failed for {video_id}. Reason:\\n{e}\")\n",
    "            print(\"Skipping this video and continuing with the next one.\")\n",
    "        finally:\n",
    "            os.makedirs(os.path.dirname(output_json_path), exist_ok=True)\n",
    "            with open(output_json_path, \"w\", encoding=\"utf-8\") as f:\n",
    "                json.dump(results, f, ensure_ascii=False, indent=2)\n",
    "        idx += 1\n",
    "\n",
    "    print(f\"\\nSuccessfully processed {len(results)} videos.\")\n",
    "\n"
   ]
  },
  {
   "cell_type": "code",
   "execution_count": 3,
   "id": "96d74075",
   "metadata": {},
   "outputs": [
    {
     "ename": "NameError",
     "evalue": "name 'sample_video_ids_from_dir' is not defined",
     "output_type": "error",
     "traceback": [
      "\u001b[0;31m---------------------------------------------------------------------------\u001b[0m",
      "\u001b[0;31mNameError\u001b[0m                                 Traceback (most recent call last)",
      "Cell \u001b[0;32mIn[3], line 29\u001b[0m\n\u001b[1;32m     20\u001b[0m     batch_process_videos(\n\u001b[1;32m     21\u001b[0m         video_ids\u001b[38;5;241m=\u001b[39msampled_ids,\n\u001b[1;32m     22\u001b[0m         video_dir\u001b[38;5;241m=\u001b[39mvideo_dir,\n\u001b[0;32m   (...)\u001b[0m\n\u001b[1;32m     25\u001b[0m         whisper_model\u001b[38;5;241m=\u001b[39mwhisper_model\n\u001b[1;32m     26\u001b[0m     )\n\u001b[1;32m     28\u001b[0m \u001b[38;5;28;01mif\u001b[39;00m \u001b[38;5;18m__name__\u001b[39m \u001b[38;5;241m==\u001b[39m \u001b[38;5;124m\"\u001b[39m\u001b[38;5;124m__main__\u001b[39m\u001b[38;5;124m\"\u001b[39m:\n\u001b[0;32m---> 29\u001b[0m     \u001b[43mrun_pipeline\u001b[49m\u001b[43m(\u001b[49m\u001b[43m)\u001b[49m\n",
      "Cell \u001b[0;32mIn[3], line 17\u001b[0m, in \u001b[0;36mrun_pipeline\u001b[0;34m()\u001b[0m\n\u001b[1;32m     14\u001b[0m work_dir\u001b[38;5;241m.\u001b[39mmkdir(parents\u001b[38;5;241m=\u001b[39m\u001b[38;5;28;01mTrue\u001b[39;00m, exist_ok\u001b[38;5;241m=\u001b[39m\u001b[38;5;28;01mTrue\u001b[39;00m)\n\u001b[1;32m     16\u001b[0m \u001b[38;5;66;03m# Step 1: Sample video IDs\u001b[39;00m\n\u001b[0;32m---> 17\u001b[0m sampled_ids \u001b[38;5;241m=\u001b[39m \u001b[43msample_video_ids_from_dir\u001b[49m( base_dir \u001b[38;5;241m=\u001b[39m project_root\u001b[38;5;241m/\u001b[39m\u001b[38;5;124m\"\u001b[39m\u001b[38;5;124myoutube_videos\u001b[39m\u001b[38;5;124m\"\u001b[39m\u001b[38;5;241m/\u001b[39m\u001b[38;5;124m\"\u001b[39m\u001b[38;5;124mshort\u001b[39m\u001b[38;5;124m\"\u001b[39m, k\u001b[38;5;241m=\u001b[39m\u001b[38;5;241m100\u001b[39m, output_path\u001b[38;5;241m=\u001b[39mwork_dir \u001b[38;5;241m/\u001b[39m \u001b[38;5;124m\"\u001b[39m\u001b[38;5;124msampled_100_ids.json\u001b[39m\u001b[38;5;124m\"\u001b[39m)\n\u001b[1;32m     19\u001b[0m \u001b[38;5;66;03m# Step 2: Run batch processing\u001b[39;00m\n\u001b[1;32m     20\u001b[0m batch_process_videos(\n\u001b[1;32m     21\u001b[0m     video_ids\u001b[38;5;241m=\u001b[39msampled_ids,\n\u001b[1;32m     22\u001b[0m     video_dir\u001b[38;5;241m=\u001b[39mvideo_dir,\n\u001b[0;32m   (...)\u001b[0m\n\u001b[1;32m     25\u001b[0m     whisper_model\u001b[38;5;241m=\u001b[39mwhisper_model\n\u001b[1;32m     26\u001b[0m )\n",
      "\u001b[0;31mNameError\u001b[0m: name 'sample_video_ids_from_dir' is not defined"
     ]
    }
   ],
   "source": [
    "def run_pipeline():\n",
    "    from pathlib import Path\n",
    "    import os\n",
    "    # Configurations\n",
    "    current_dir = Path.cwd()\n",
    "    project_root = current_dir.parent\n",
    "    base_dir = \"youtube_videos/short\"\n",
    "    video_dir = project_root / base_dir  # Directory with original videos\n",
    "    work_dir = project_root /\"processed_results\"  # Output dir for all results\n",
    "    output_json_path = work_dir / \"final_results.json\"\n",
    "    whisper_model = \"base\"  # or \"small\", \"medium\", etc.\n",
    "  \n",
    "    # Ensure output directory exists\n",
    "    work_dir.mkdir(parents=True, exist_ok=True)\n",
    "\n",
    "    # Step 1: Sample video IDs\n",
    "    sampled_ids = sample_video_ids_from_dir( base_dir = project_root/\"youtube_videos\"/\"short\", k=100, output_path=work_dir / \"sampled_100_ids.json\")\n",
    "\n",
    "    # Step 2: Run batch processing\n",
    "    batch_process_videos(\n",
    "        video_ids=sampled_ids,\n",
    "        video_dir=video_dir,\n",
    "        work_dir=work_dir,\n",
    "        output_json_path=output_json_path,\n",
    "        whisper_model=whisper_model\n",
    "    )\n",
    "\n",
    "if __name__ == \"__main__\":\n",
    "    run_pipeline()\n"
   ]
  },
  {
   "cell_type": "code",
   "execution_count": 12,
   "id": "dbeeae3b",
   "metadata": {},
   "outputs": [
    {
     "name": "stdout",
     "output_type": "stream",
     "text": [
      "Found 13479 videos. Sampled 20 IDs to /Users/lyfan/Desktop/data/processed_results/sampled_more_ids.json.\n",
      "\n",
      "=== Processing 1/20: HfycScoL2zA ===\n",
      "[INFO] Downloading video: HfycScoL2zA\n",
      "[DOWNLOADING LOW QUALITY] HfycScoL2zA...\n",
      "[SUCCESS] Downloaded HfycScoL2zA\n",
      "[INFO] YouTube transcript used for HfycScoL2zA\n",
      "Extracting audio: ffmpeg -y -i \"/Users/lyfan/Desktop/data/youtube_videos/short/HfycScoL2zA.mp4\" -vn -acodec pcm_s16le -ar 44100 -ac 2 \"/Users/lyfan/Desktop/data/processed_results/HfycScoL2zA/audio.wav\"\n",
      "Running demucs command: demucs --two-stems=vocals \"/Users/lyfan/Desktop/data/processed_results/HfycScoL2zA/audio.wav\" -o \"/Users/lyfan/Desktop/data/processed_results/HfycScoL2zA\"\n"
     ]
    },
    {
     "name": "stderr",
     "output_type": "stream",
     "text": [
      "ffmpeg version 7.1.1 Copyright (c) 2000-2025 the FFmpeg developers\n",
      "  built with Apple clang version 17.0.0 (clang-1700.0.13.3)\n",
      "  configuration: --prefix=/opt/homebrew/Cellar/ffmpeg/7.1.1_3 --enable-shared --enable-pthreads --enable-version3 --cc=clang --host-cflags= --host-ldflags='-Wl,-ld_classic' --enable-ffplay --enable-gnutls --enable-gpl --enable-libaom --enable-libaribb24 --enable-libbluray --enable-libdav1d --enable-libharfbuzz --enable-libjxl --enable-libmp3lame --enable-libopus --enable-librav1e --enable-librist --enable-librubberband --enable-libsnappy --enable-libsrt --enable-libssh --enable-libsvtav1 --enable-libtesseract --enable-libtheora --enable-libvidstab --enable-libvmaf --enable-libvorbis --enable-libvpx --enable-libwebp --enable-libx264 --enable-libx265 --enable-libxml2 --enable-libxvid --enable-lzma --enable-libfontconfig --enable-libfreetype --enable-frei0r --enable-libass --enable-libopencore-amrnb --enable-libopencore-amrwb --enable-libopenjpeg --enable-libspeex --enable-libsoxr --enable-libzmq --enable-libzimg --disable-libjack --disable-indev=jack --enable-videotoolbox --enable-audiotoolbox --enable-neon\n",
      "  libavutil      59. 39.100 / 59. 39.100\n",
      "  libavcodec     61. 19.101 / 61. 19.101\n",
      "  libavformat    61.  7.100 / 61.  7.100\n",
      "  libavdevice    61.  3.100 / 61.  3.100\n",
      "  libavfilter    10.  4.100 / 10.  4.100\n",
      "  libswscale      8.  3.100 /  8.  3.100\n",
      "  libswresample   5.  3.100 /  5.  3.100\n",
      "  libpostproc    58.  3.100 / 58.  3.100\n",
      "Input #0, mov,mp4,m4a,3gp,3g2,mj2, from '/Users/lyfan/Desktop/data/youtube_videos/short/HfycScoL2zA.mp4':\n",
      "  Metadata:\n",
      "    major_brand     : isom\n",
      "    minor_version   : 512\n",
      "    compatible_brands: isomiso2mp41\n",
      "    encoder         : Lavf61.7.100\n",
      "  Duration: 00:00:27.98, start: 0.000000, bitrate: 163 kb/s\n",
      "  Stream #0:0[0x1](und): Video: vp9 (Profile 0) (vp09 / 0x39307076), yuv420p(tv, bt709), 144x256, 30 kb/s, 15.02 fps, 30 tbr, 16k tbn (default)\n",
      "      Metadata:\n",
      "        handler_name    : ISO Media file produced by Google Inc. Created on: 07/02/2025.\n",
      "        vendor_id       : [0][0][0][0]\n",
      "  Stream #0:1[0x2](und): Audio: aac (LC) (mp4a / 0x6134706D), 44100 Hz, stereo, fltp, 128 kb/s (default)\n",
      "      Metadata:\n",
      "        handler_name    : ISO Media file produced by Google Inc.\n",
      "        vendor_id       : [0][0][0][0]\n",
      "Stream mapping:\n",
      "  Stream #0:1 -> #0:0 (aac (native) -> pcm_s16le (native))\n",
      "Press [q] to stop, [?] for help\n",
      "Output #0, wav, to '/Users/lyfan/Desktop/data/processed_results/HfycScoL2zA/audio.wav':\n",
      "  Metadata:\n",
      "    major_brand     : isom\n",
      "    minor_version   : 512\n",
      "    compatible_brands: isomiso2mp41\n",
      "    ISFT            : Lavf61.7.100\n",
      "  Stream #0:0(und): Audio: pcm_s16le ([1][0][0][0] / 0x0001), 44100 Hz, stereo, s16, 1411 kb/s (default)\n",
      "      Metadata:\n",
      "        handler_name    : ISO Media file produced by Google Inc.\n",
      "        vendor_id       : [0][0][0][0]\n",
      "        encoder         : Lavc61.19.101 pcm_s16le\n",
      "[out#0/wav @ 0x12a008230] video:0KiB audio:4820KiB subtitle:0KiB other streams:0KiB global headers:0KiB muxing overhead: 0.001580%\n",
      "size=    4820KiB time=00:00:27.98 bitrate=1411.2kbits/s speed=1.46e+03x    \n"
     ]
    },
    {
     "name": "stdout",
     "output_type": "stream",
     "text": [
      "\u001b[1mImportant: the default model was recently changed to `htdemucs`\u001b[0m the latest Hybrid Transformer Demucs model. In some cases, this model can actually perform worse than previous models. To get back the old default model use `-n mdx_extra_q`.\n",
      "Selected model is a bag of 1 models. You will see that many progress bars per track.\n",
      "Separated tracks will be stored in /Users/lyfan/Desktop/data/processed_results/HfycScoL2zA/htdemucs\n",
      "Separating track /Users/lyfan/Desktop/data/processed_results/HfycScoL2zA/audio.wav\n"
     ]
    },
    {
     "name": "stderr",
     "output_type": "stream",
     "text": [
      "100%|████████████████████████████████████████████████████████████████████████| 29.25/29.25 [00:11<00:00,  2.48seconds/s]\n"
     ]
    },
    {
     "name": "stdout",
     "output_type": "stream",
     "text": [
      "frame_0000.jpg: A gamer is intensely focused during a streaming session\n",
      "frame_0020.jpg: The streamer smiles with \"OKAY\" text overlayed during gameplay\n",
      "Saved captions to /Users/lyfan/Desktop/data/processed_results/HfycScoL2zA/videollama_captions.json\n",
      "\n",
      "=== Processing 2/20: Qpc8m5jrGow ===\n",
      "[INFO] Downloading video: Qpc8m5jrGow\n"
     ]
    },
    {
     "name": "stderr",
     "output_type": "stream",
     "text": [
      "WARNING: [youtube] Qpc8m5jrGow: Some tv client https formats have been skipped as they are DRM protected. The current session may have an experiment that applies DRM to all videos on the tv client. See  https://github.com/yt-dlp/yt-dlp/issues/12563  for more details.\n",
      "WARNING: [youtube] Qpc8m5jrGow: Some web client https formats have been skipped as they are missing a url. YouTube is forcing SABR streaming for this client. See  https://github.com/yt-dlp/yt-dlp/issues/12482  for more details\n"
     ]
    },
    {
     "name": "stdout",
     "output_type": "stream",
     "text": [
      "[DOWNLOADING LOW QUALITY] Qpc8m5jrGow...\n",
      "[SUCCESS] Downloaded Qpc8m5jrGow\n",
      "[WARN] No YouTube transcript found for Qpc8m5jrGow, falling back to Whisper...\n"
     ]
    },
    {
     "name": "stderr",
     "output_type": "stream",
     "text": [
      "/Users/lyfan/Library/Python/3.9/lib/python/site-packages/whisper/transcribe.py:126: UserWarning: FP16 is not supported on CPU; using FP32 instead\n",
      "  warnings.warn(\"FP16 is not supported on CPU; using FP32 instead\")\n"
     ]
    },
    {
     "name": "stdout",
     "output_type": "stream",
     "text": [
      "Detected language: German\n"
     ]
    },
    {
     "name": "stderr",
     "output_type": "stream",
     "text": [
      "100%|██████████| 1465/1465 [00:01<00:00, 1418.47frames/s]\n",
      "ffmpeg version 7.1.1 Copyright (c) 2000-2025 the FFmpeg developers\n",
      "  built with Apple clang version 17.0.0 (clang-1700.0.13.3)\n",
      "  configuration: --prefix=/opt/homebrew/Cellar/ffmpeg/7.1.1_3 --enable-shared --enable-pthreads --enable-version3 --cc=clang --host-cflags= --host-ldflags='-Wl,-ld_classic' --enable-ffplay --enable-gnutls --enable-gpl --enable-libaom --enable-libaribb24 --enable-libbluray --enable-libdav1d --enable-libharfbuzz --enable-libjxl --enable-libmp3lame --enable-libopus --enable-librav1e --enable-librist --enable-librubberband --enable-libsnappy --enable-libsrt --enable-libssh --enable-libsvtav1 --enable-libtesseract --enable-libtheora --enable-libvidstab --enable-libvmaf --enable-libvorbis --enable-libvpx --enable-libwebp --enable-libx264 --enable-libx265 --enable-libxml2 --enable-libxvid --enable-lzma --enable-libfontconfig --enable-libfreetype --enable-frei0r --enable-libass --enable-libopencore-amrnb --enable-libopencore-amrwb --enable-libopenjpeg --enable-libspeex --enable-libsoxr --enable-libzmq --enable-libzimg --disable-libjack --disable-indev=jack --enable-videotoolbox --enable-audiotoolbox --enable-neon\n",
      "  libavutil      59. 39.100 / 59. 39.100\n",
      "  libavcodec     61. 19.101 / 61. 19.101\n",
      "  libavformat    61.  7.100 / 61.  7.100\n",
      "  libavdevice    61.  3.100 / 61.  3.100\n",
      "  libavfilter    10.  4.100 / 10.  4.100\n",
      "  libswscale      8.  3.100 /  8.  3.100\n",
      "  libswresample   5.  3.100 /  5.  3.100\n",
      "  libpostproc    58.  3.100 / 58.  3.100\n",
      "Input #0, mov,mp4,m4a,3gp,3g2,mj2, from '/Users/lyfan/Desktop/data/youtube_videos/short/Qpc8m5jrGow.mp4':\n",
      "  Metadata:\n",
      "    major_brand     : isom\n",
      "    minor_version   : 512\n",
      "    compatible_brands: isomiso2mp41\n",
      "    encoder         : Lavf61.7.100\n",
      "  Duration: 00:00:14.65, start: 0.000000, bitrate: 162 kb/s\n",
      "  Stream #0:0[0x1](und): Video: vp9 (Profile 0) (vp09 / 0x39307076), yuv420p(tv, bt709), 144x256, 29 kb/s, 15.04 fps, 15 tbr, 16k tbn (default)\n",
      "      Metadata:\n",
      "        handler_name    : ISO Media file produced by Google Inc. Created on: 07/02/2025.\n",
      "        vendor_id       : [0][0][0][0]\n",
      "  Stream #0:1[0x2](eng): Audio: aac (LC) (mp4a / 0x6134706D), 44100 Hz, stereo, fltp, 128 kb/s (default)\n",
      "      Metadata:\n",
      "        handler_name    : ISO Media file produced by Google Inc.\n",
      "        vendor_id       : [0][0][0][0]\n",
      "Stream mapping:\n",
      "  Stream #0:1 -> #0:0 (aac (native) -> pcm_s16le (native))\n",
      "Press [q] to stop, [?] for help\n",
      "Output #0, wav, to '/Users/lyfan/Desktop/data/processed_results/Qpc8m5jrGow/audio.wav':\n",
      "  Metadata:\n",
      "    major_brand     : isom\n",
      "    minor_version   : 512\n",
      "    compatible_brands: isomiso2mp41\n",
      "    ISFT            : Lavf61.7.100\n",
      "  Stream #0:0(eng): Audio: pcm_s16le ([1][0][0][0] / 0x0001), 44100 Hz, stereo, s16, 1411 kb/s (default)\n",
      "      Metadata:\n",
      "        handler_name    : ISO Media file produced by Google Inc.\n",
      "        vendor_id       : [0][0][0][0]\n",
      "        encoder         : Lavc61.19.101 pcm_s16le\n",
      "[out#0/wav @ 0x13ef08280] video:0KiB audio:2524KiB subtitle:0KiB other streams:0KiB global headers:0KiB muxing overhead: 0.003018%\n",
      "size=    2524KiB time=00:00:14.65 bitrate=1411.2kbits/s speed=1.39e+03x    \n"
     ]
    },
    {
     "name": "stdout",
     "output_type": "stream",
     "text": [
      "[INFO] Whisper transcript used for Qpc8m5jrGow\n",
      "Extracting audio: ffmpeg -y -i \"/Users/lyfan/Desktop/data/youtube_videos/short/Qpc8m5jrGow.mp4\" -vn -acodec pcm_s16le -ar 44100 -ac 2 \"/Users/lyfan/Desktop/data/processed_results/Qpc8m5jrGow/audio.wav\"\n",
      "Running demucs command: demucs --two-stems=vocals \"/Users/lyfan/Desktop/data/processed_results/Qpc8m5jrGow/audio.wav\" -o \"/Users/lyfan/Desktop/data/processed_results/Qpc8m5jrGow\"\n",
      "\u001b[1mImportant: the default model was recently changed to `htdemucs`\u001b[0m the latest Hybrid Transformer Demucs model. In some cases, this model can actually perform worse than previous models. To get back the old default model use `-n mdx_extra_q`.\n",
      "Selected model is a bag of 1 models. You will see that many progress bars per track.\n",
      "Separated tracks will be stored in /Users/lyfan/Desktop/data/processed_results/Qpc8m5jrGow/htdemucs\n",
      "Separating track /Users/lyfan/Desktop/data/processed_results/Qpc8m5jrGow/audio.wav\n"
     ]
    },
    {
     "name": "stderr",
     "output_type": "stream",
     "text": [
      "100%|██████████████████████████████████████████████| 17.549999999999997/17.549999999999997 [00:07<00:00,  2.41seconds/s]\n"
     ]
    },
    {
     "name": "stdout",
     "output_type": "stream",
     "text": [
      "frame_0000.jpg: \"A woman smiles as she stands next to a person wearing a funny mask in a garden.\"\n",
      "Saved captions to /Users/lyfan/Desktop/data/processed_results/Qpc8m5jrGow/videollama_captions.json\n",
      "\n",
      "=== Processing 3/20: AGdSjTHv4_M ===\n",
      "[INFO] Downloading video: AGdSjTHv4_M\n",
      "[DOWNLOADING LOW QUALITY] AGdSjTHv4_M...\n",
      "[SUCCESS] Downloaded AGdSjTHv4_M\n",
      "[WARN] No YouTube transcript found for AGdSjTHv4_M, falling back to Whisper...\n"
     ]
    },
    {
     "name": "stderr",
     "output_type": "stream",
     "text": [
      "/Users/lyfan/Library/Python/3.9/lib/python/site-packages/whisper/transcribe.py:126: UserWarning: FP16 is not supported on CPU; using FP32 instead\n",
      "  warnings.warn(\"FP16 is not supported on CPU; using FP32 instead\")\n"
     ]
    },
    {
     "name": "stdout",
     "output_type": "stream",
     "text": [
      "Detected language: English\n"
     ]
    },
    {
     "name": "stderr",
     "output_type": "stream",
     "text": [
      "100%|██████████| 1462/1462 [00:01<00:00, 801.12frames/s]\n",
      "ffmpeg version 7.1.1 Copyright (c) 2000-2025 the FFmpeg developers\n",
      "  built with Apple clang version 17.0.0 (clang-1700.0.13.3)\n",
      "  configuration: --prefix=/opt/homebrew/Cellar/ffmpeg/7.1.1_3 --enable-shared --enable-pthreads --enable-version3 --cc=clang --host-cflags= --host-ldflags='-Wl,-ld_classic' --enable-ffplay --enable-gnutls --enable-gpl --enable-libaom --enable-libaribb24 --enable-libbluray --enable-libdav1d --enable-libharfbuzz --enable-libjxl --enable-libmp3lame --enable-libopus --enable-librav1e --enable-librist --enable-librubberband --enable-libsnappy --enable-libsrt --enable-libssh --enable-libsvtav1 --enable-libtesseract --enable-libtheora --enable-libvidstab --enable-libvmaf --enable-libvorbis --enable-libvpx --enable-libwebp --enable-libx264 --enable-libx265 --enable-libxml2 --enable-libxvid --enable-lzma --enable-libfontconfig --enable-libfreetype --enable-frei0r --enable-libass --enable-libopencore-amrnb --enable-libopencore-amrwb --enable-libopenjpeg --enable-libspeex --enable-libsoxr --enable-libzmq --enable-libzimg --disable-libjack --disable-indev=jack --enable-videotoolbox --enable-audiotoolbox --enable-neon\n",
      "  libavutil      59. 39.100 / 59. 39.100\n",
      "  libavcodec     61. 19.101 / 61. 19.101\n",
      "  libavformat    61.  7.100 / 61.  7.100\n",
      "  libavdevice    61.  3.100 / 61.  3.100\n",
      "  libavfilter    10.  4.100 / 10.  4.100\n",
      "  libswscale      8.  3.100 /  8.  3.100\n",
      "  libswresample   5.  3.100 /  5.  3.100\n",
      "  libpostproc    58.  3.100 / 58.  3.100\n",
      "Input #0, mov,mp4,m4a,3gp,3g2,mj2, from '/Users/lyfan/Desktop/data/youtube_videos/short/AGdSjTHv4_M.mp4':\n",
      "  Metadata:\n",
      "    major_brand     : isom\n",
      "    minor_version   : 512\n",
      "    compatible_brands: isomiso2mp41\n",
      "    encoder         : Lavf61.7.100\n",
      "  Duration: 00:00:14.63, start: 0.000000, bitrate: 147 kb/s\n",
      "  Stream #0:0[0x1](und): Video: vp9 (Profile 0) (vp09 / 0x39307076), yuv420p(tv, bt709), 144x144, 14 kb/s, 15 fps, 15 tbr, 16k tbn (default)\n",
      "      Metadata:\n",
      "        handler_name    : ISO Media file produced by Google Inc. Created on: 07/02/2025.\n",
      "        vendor_id       : [0][0][0][0]\n",
      "  Stream #0:1[0x2](eng): Audio: aac (LC) (mp4a / 0x6134706D), 44100 Hz, stereo, fltp, 128 kb/s (default)\n",
      "      Metadata:\n",
      "        handler_name    : ISO Media file produced by Google Inc.\n",
      "        vendor_id       : [0][0][0][0]\n",
      "Stream mapping:\n",
      "  Stream #0:1 -> #0:0 (aac (native) -> pcm_s16le (native))\n",
      "Press [q] to stop, [?] for help\n",
      "Output #0, wav, to '/Users/lyfan/Desktop/data/processed_results/AGdSjTHv4_M/audio.wav':\n",
      "  Metadata:\n",
      "    major_brand     : isom\n",
      "    minor_version   : 512\n",
      "    compatible_brands: isomiso2mp41\n",
      "    ISFT            : Lavf61.7.100\n",
      "  Stream #0:0(eng): Audio: pcm_s16le ([1][0][0][0] / 0x0001), 44100 Hz, stereo, s16, 1411 kb/s (default)\n",
      "      Metadata:\n",
      "        handler_name    : ISO Media file produced by Google Inc.\n",
      "        vendor_id       : [0][0][0][0]\n",
      "        encoder         : Lavc61.19.101 pcm_s16le\n",
      "[out#0/wav @ 0x12e634bf0] video:0KiB audio:2520KiB subtitle:0KiB other streams:0KiB global headers:0KiB muxing overhead: 0.003023%\n",
      "size=    2520KiB time=00:00:14.62 bitrate=1411.2kbits/s speed=1.46e+03x    \n"
     ]
    },
    {
     "name": "stdout",
     "output_type": "stream",
     "text": [
      "[INFO] Whisper transcript used for AGdSjTHv4_M\n",
      "Extracting audio: ffmpeg -y -i \"/Users/lyfan/Desktop/data/youtube_videos/short/AGdSjTHv4_M.mp4\" -vn -acodec pcm_s16le -ar 44100 -ac 2 \"/Users/lyfan/Desktop/data/processed_results/AGdSjTHv4_M/audio.wav\"\n",
      "Running demucs command: demucs --two-stems=vocals \"/Users/lyfan/Desktop/data/processed_results/AGdSjTHv4_M/audio.wav\" -o \"/Users/lyfan/Desktop/data/processed_results/AGdSjTHv4_M\"\n",
      "\u001b[1mImportant: the default model was recently changed to `htdemucs`\u001b[0m the latest Hybrid Transformer Demucs model. In some cases, this model can actually perform worse than previous models. To get back the old default model use `-n mdx_extra_q`.\n",
      "Selected model is a bag of 1 models. You will see that many progress bars per track.\n",
      "Separated tracks will be stored in /Users/lyfan/Desktop/data/processed_results/AGdSjTHv4_M/htdemucs\n",
      "Separating track /Users/lyfan/Desktop/data/processed_results/AGdSjTHv4_M/audio.wav\n"
     ]
    },
    {
     "name": "stderr",
     "output_type": "stream",
     "text": [
      "100%|██████████████████████████████████████████████| 17.549999999999997/17.549999999999997 [00:07<00:00,  2.45seconds/s]\n"
     ]
    },
    {
     "name": "stdout",
     "output_type": "stream",
     "text": [
      "frame_0000.jpg: \"The game screen indicates maxed-out inventory slots at 25/25 and unopened packages at 33/33.\"\n",
      "Saved captions to /Users/lyfan/Desktop/data/processed_results/AGdSjTHv4_M/videollama_captions.json\n",
      "\n",
      "=== Processing 4/20: QocbdMMlqQM ===\n",
      "[INFO] Downloading video: QocbdMMlqQM\n"
     ]
    },
    {
     "name": "stderr",
     "output_type": "stream",
     "text": [
      "WARNING: [youtube] QocbdMMlqQM: Signature extraction failed: Some formats may be missing\n",
      "         player = https://www.youtube.com/s/player/e12fbea4/player_ias.vflset/en_US/base.js\n",
      "         Please report this issue on  https://github.com/yt-dlp/yt-dlp/issues?q= , filling out the appropriate issue template. Confirm you are on the latest version using  yt-dlp -U\n",
      "WARNING: [youtube] QocbdMMlqQM: Some web client https formats have been skipped as they are missing a url. YouTube is forcing SABR streaming for this client. See  https://github.com/yt-dlp/yt-dlp/issues/12482  for more details\n"
     ]
    },
    {
     "name": "stdout",
     "output_type": "stream",
     "text": [
      "[DOWNLOADING LOW QUALITY] QocbdMMlqQM...\n"
     ]
    },
    {
     "name": "stderr",
     "output_type": "stream",
     "text": [
      "WARNING: [youtube] QocbdMMlqQM: Some tv client https formats have been skipped as they are DRM protected. The current session may have an experiment that applies DRM to all videos on the tv client. See  https://github.com/yt-dlp/yt-dlp/issues/12563  for more details.\n",
      "WARNING: [youtube] QocbdMMlqQM: Signature extraction failed: Some formats may be missing\n",
      "         player = https://www.youtube.com/s/player/e12fbea4/player_ias.vflset/en_US/base.js\n",
      "         Please report this issue on  https://github.com/yt-dlp/yt-dlp/issues?q= , filling out the appropriate issue template. Confirm you are on the latest version using  yt-dlp -U\n",
      "WARNING: [youtube] QocbdMMlqQM: Some web client https formats have been skipped as they are missing a url. YouTube is forcing SABR streaming for this client. See  https://github.com/yt-dlp/yt-dlp/issues/12482  for more details\n",
      "ERROR: [youtube] QocbdMMlqQM: Requested format is not available. Use --list-formats for a list of available formats\n"
     ]
    },
    {
     "name": "stdout",
     "output_type": "stream",
     "text": [
      "[ERROR] Failed to download QocbdMMlqQM: ERROR: [youtube] QocbdMMlqQM: Requested format is not available. Use --list-formats for a list of available formats\n",
      "[ABORT] Processing failed for QocbdMMlqQM. Reason:\n",
      "Video download failed or file not found: /Users/lyfan/Desktop/data/youtube_videos/short/QocbdMMlqQM.mp4\n",
      "Skipping this video and continuing with the next one.\n",
      "\n",
      "=== Processing 5/20: XVuooOqR4qQ ===\n",
      "[INFO] Downloading video: XVuooOqR4qQ\n",
      "[DOWNLOADING LOW QUALITY] XVuooOqR4qQ...\n",
      "[SUCCESS] Downloaded XVuooOqR4qQ\n",
      "[INFO] YouTube transcript used for XVuooOqR4qQ\n",
      "Extracting audio: ffmpeg -y -i \"/Users/lyfan/Desktop/data/youtube_videos/short/XVuooOqR4qQ.mp4\" -vn -acodec pcm_s16le -ar 44100 -ac 2 \"/Users/lyfan/Desktop/data/processed_results/XVuooOqR4qQ/audio.wav\"\n",
      "Running demucs command: demucs --two-stems=vocals \"/Users/lyfan/Desktop/data/processed_results/XVuooOqR4qQ/audio.wav\" -o \"/Users/lyfan/Desktop/data/processed_results/XVuooOqR4qQ\"\n"
     ]
    },
    {
     "name": "stderr",
     "output_type": "stream",
     "text": [
      "ffmpeg version 7.1.1 Copyright (c) 2000-2025 the FFmpeg developers\n",
      "  built with Apple clang version 17.0.0 (clang-1700.0.13.3)\n",
      "  configuration: --prefix=/opt/homebrew/Cellar/ffmpeg/7.1.1_3 --enable-shared --enable-pthreads --enable-version3 --cc=clang --host-cflags= --host-ldflags='-Wl,-ld_classic' --enable-ffplay --enable-gnutls --enable-gpl --enable-libaom --enable-libaribb24 --enable-libbluray --enable-libdav1d --enable-libharfbuzz --enable-libjxl --enable-libmp3lame --enable-libopus --enable-librav1e --enable-librist --enable-librubberband --enable-libsnappy --enable-libsrt --enable-libssh --enable-libsvtav1 --enable-libtesseract --enable-libtheora --enable-libvidstab --enable-libvmaf --enable-libvorbis --enable-libvpx --enable-libwebp --enable-libx264 --enable-libx265 --enable-libxml2 --enable-libxvid --enable-lzma --enable-libfontconfig --enable-libfreetype --enable-frei0r --enable-libass --enable-libopencore-amrnb --enable-libopencore-amrwb --enable-libopenjpeg --enable-libspeex --enable-libsoxr --enable-libzmq --enable-libzimg --disable-libjack --disable-indev=jack --enable-videotoolbox --enable-audiotoolbox --enable-neon\n",
      "  libavutil      59. 39.100 / 59. 39.100\n",
      "  libavcodec     61. 19.101 / 61. 19.101\n",
      "  libavformat    61.  7.100 / 61.  7.100\n",
      "  libavdevice    61.  3.100 / 61.  3.100\n",
      "  libavfilter    10.  4.100 / 10.  4.100\n",
      "  libswscale      8.  3.100 /  8.  3.100\n",
      "  libswresample   5.  3.100 /  5.  3.100\n",
      "  libpostproc    58.  3.100 / 58.  3.100\n",
      "Input #0, mov,mp4,m4a,3gp,3g2,mj2, from '/Users/lyfan/Desktop/data/youtube_videos/short/XVuooOqR4qQ.mp4':\n",
      "  Metadata:\n",
      "    major_brand     : isom\n",
      "    minor_version   : 512\n",
      "    compatible_brands: isomiso2mp41\n",
      "    encoder         : Lavf61.7.100\n",
      "  Duration: 00:02:25.54, start: 0.000000, bitrate: 160 kb/s\n",
      "  Stream #0:0[0x1](und): Video: vp9 (Profile 0) (vp09 / 0x39307076), yuv420p(tv, bt709), 256x144, 28 kb/s, 12.50 fps, 12.50 tbr, 16k tbn (default)\n",
      "      Metadata:\n",
      "        handler_name    : ISO Media file produced by Google Inc. Created on: 07/02/2025.\n",
      "        vendor_id       : [0][0][0][0]\n",
      "  Stream #0:1[0x2](eng): Audio: aac (LC) (mp4a / 0x6134706D), 44100 Hz, stereo, fltp, 127 kb/s (default)\n",
      "      Metadata:\n",
      "        handler_name    : ISO Media file produced by Google Inc.\n",
      "        vendor_id       : [0][0][0][0]\n",
      "Stream mapping:\n",
      "  Stream #0:1 -> #0:0 (aac (native) -> pcm_s16le (native))\n",
      "Press [q] to stop, [?] for help\n",
      "Output #0, wav, to '/Users/lyfan/Desktop/data/processed_results/XVuooOqR4qQ/audio.wav':\n",
      "  Metadata:\n",
      "    major_brand     : isom\n",
      "    minor_version   : 512\n",
      "    compatible_brands: isomiso2mp41\n",
      "    ISFT            : Lavf61.7.100\n",
      "  Stream #0:0(eng): Audio: pcm_s16le ([1][0][0][0] / 0x0001), 44100 Hz, stereo, s16, 1411 kb/s (default)\n",
      "      Metadata:\n",
      "        handler_name    : ISO Media file produced by Google Inc.\n",
      "        vendor_id       : [0][0][0][0]\n",
      "        encoder         : Lavc61.19.101 pcm_s16le\n",
      "[out#0/wav @ 0x13d705cb0] video:0KiB audio:25072KiB subtitle:0KiB other streams:0KiB global headers:0KiB muxing overhead: 0.000304%\n",
      "size=   25072KiB time=00:02:25.54 bitrate=1411.2kbits/s speed=1.34e+03x    \n"
     ]
    },
    {
     "name": "stdout",
     "output_type": "stream",
     "text": [
      "\u001b[1mImportant: the default model was recently changed to `htdemucs`\u001b[0m the latest Hybrid Transformer Demucs model. In some cases, this model can actually perform worse than previous models. To get back the old default model use `-n mdx_extra_q`.\n",
      "Selected model is a bag of 1 models. You will see that many progress bars per track.\n",
      "Separated tracks will be stored in /Users/lyfan/Desktop/data/processed_results/XVuooOqR4qQ/htdemucs\n",
      "Separating track /Users/lyfan/Desktop/data/processed_results/XVuooOqR4qQ/audio.wav\n"
     ]
    },
    {
     "name": "stderr",
     "output_type": "stream",
     "text": [
      "100%|██████████████████████████████████████████████████████████████████████| 146.25/146.25 [00:53<00:00,  2.72seconds/s]\n"
     ]
    },
    {
     "name": "stdout",
     "output_type": "stream",
     "text": [
      "frame_0000.jpg: Two commentators discuss the backlash over political defection\n",
      "frame_0020.jpg: Discussion focuses on significant predicted Conservative losses in upcoming local elections\n",
      "frame_0040.jpg: The conversation continues with analysis of political forecasts and potential impacts\n",
      "frame_0060.jpg: 4. A lively exchange takes place about the expected Conservative setbacks in elections\n",
      "frame_0080.jpg: 5. The debate highlights concerns over predicted political shifts in 2024\n",
      "frame_0100.jpg: 6. Commentary concludes with reflections on the polling predictions and their implications\n",
      "frame_0120.jpg: A television segment discusses the predictions for the 2024 local elections and possible Conservative losses to Labour\n",
      "frame_0140.jpg: The TALK logo is set against a dark blue abstract background\n",
      "Saved captions to /Users/lyfan/Desktop/data/processed_results/XVuooOqR4qQ/videollama_captions.json\n",
      "\n",
      "=== Processing 6/20: 5fKYnRHtLiQ ===\n",
      "[INFO] Downloading video: 5fKYnRHtLiQ\n",
      "[DOWNLOADING LOW QUALITY] 5fKYnRHtLiQ...\n",
      "[SUCCESS] Downloaded 5fKYnRHtLiQ\n",
      "[INFO] YouTube transcript used for 5fKYnRHtLiQ\n",
      "Extracting audio: ffmpeg -y -i \"/Users/lyfan/Desktop/data/youtube_videos/short/5fKYnRHtLiQ.mp4\" -vn -acodec pcm_s16le -ar 44100 -ac 2 \"/Users/lyfan/Desktop/data/processed_results/5fKYnRHtLiQ/audio.wav\"\n"
     ]
    },
    {
     "name": "stderr",
     "output_type": "stream",
     "text": [
      "ffmpeg version 7.1.1 Copyright (c) 2000-2025 the FFmpeg developers\n",
      "  built with Apple clang version 17.0.0 (clang-1700.0.13.3)\n",
      "  configuration: --prefix=/opt/homebrew/Cellar/ffmpeg/7.1.1_3 --enable-shared --enable-pthreads --enable-version3 --cc=clang --host-cflags= --host-ldflags='-Wl,-ld_classic' --enable-ffplay --enable-gnutls --enable-gpl --enable-libaom --enable-libaribb24 --enable-libbluray --enable-libdav1d --enable-libharfbuzz --enable-libjxl --enable-libmp3lame --enable-libopus --enable-librav1e --enable-librist --enable-librubberband --enable-libsnappy --enable-libsrt --enable-libssh --enable-libsvtav1 --enable-libtesseract --enable-libtheora --enable-libvidstab --enable-libvmaf --enable-libvorbis --enable-libvpx --enable-libwebp --enable-libx264 --enable-libx265 --enable-libxml2 --enable-libxvid --enable-lzma --enable-libfontconfig --enable-libfreetype --enable-frei0r --enable-libass --enable-libopencore-amrnb --enable-libopencore-amrwb --enable-libopenjpeg --enable-libspeex --enable-libsoxr --enable-libzmq --enable-libzimg --disable-libjack --disable-indev=jack --enable-videotoolbox --enable-audiotoolbox --enable-neon\n",
      "  libavutil      59. 39.100 / 59. 39.100\n",
      "  libavcodec     61. 19.101 / 61. 19.101\n",
      "  libavformat    61.  7.100 / 61.  7.100\n",
      "  libavdevice    61.  3.100 / 61.  3.100\n",
      "  libavfilter    10.  4.100 / 10.  4.100\n",
      "  libswscale      8.  3.100 /  8.  3.100\n",
      "  libswresample   5.  3.100 /  5.  3.100\n",
      "  libpostproc    58.  3.100 / 58.  3.100\n",
      "Input #0, mov,mp4,m4a,3gp,3g2,mj2, from '/Users/lyfan/Desktop/data/youtube_videos/short/5fKYnRHtLiQ.mp4':\n",
      "  Metadata:\n",
      "    major_brand     : isom\n",
      "    minor_version   : 512\n",
      "    compatible_brands: isomiso2avc1mp41\n",
      "    encoder         : Lavf61.7.100\n",
      "  Duration: 00:02:37.90, start: 0.000000, bitrate: 197 kb/s\n",
      "  Stream #0:0[0x1](und): Video: h264 (Main) (avc1 / 0x31637661), yuv420p(tv, bt709, progressive), 256x144 [SAR 1:1 DAR 16:9], 63 kb/s, 25 fps, 25 tbr, 90k tbn (default)\n",
      "      Metadata:\n",
      "        handler_name    : VideoHandler\n",
      "        vendor_id       : [0][0][0][0]\n",
      "  Stream #0:1[0x2](und): Audio: aac (LC) (mp4a / 0x6134706D), 44100 Hz, stereo, fltp, 128 kb/s (default)\n",
      "      Metadata:\n",
      "        handler_name    : ISO Media file produced by Google Inc.\n",
      "        vendor_id       : [0][0][0][0]\n",
      "Stream mapping:\n",
      "  Stream #0:1 -> #0:0 (aac (native) -> pcm_s16le (native))\n",
      "Press [q] to stop, [?] for help\n",
      "Output #0, wav, to '/Users/lyfan/Desktop/data/processed_results/5fKYnRHtLiQ/audio.wav':\n",
      "  Metadata:\n",
      "    major_brand     : isom\n",
      "    minor_version   : 512\n",
      "    compatible_brands: isomiso2avc1mp41\n",
      "    ISFT            : Lavf61.7.100\n",
      "  Stream #0:0(und): Audio: pcm_s16le ([1][0][0][0] / 0x0001), 44100 Hz, stereo, s16, 1411 kb/s (default)\n",
      "      Metadata:\n",
      "        handler_name    : ISO Media file produced by Google Inc.\n",
      "        vendor_id       : [0][0][0][0]\n",
      "        encoder         : Lavc61.19.101 pcm_s16le\n",
      "[out#0/wav @ 0x154f08130] video:0KiB audio:27200KiB subtitle:0KiB other streams:0KiB global headers:0KiB muxing overhead: 0.000280%\n",
      "size=   27200KiB time=00:02:37.89 bitrate=1411.2kbits/s speed=1.27e+03x    \n"
     ]
    },
    {
     "name": "stdout",
     "output_type": "stream",
     "text": [
      "Running demucs command: demucs --two-stems=vocals \"/Users/lyfan/Desktop/data/processed_results/5fKYnRHtLiQ/audio.wav\" -o \"/Users/lyfan/Desktop/data/processed_results/5fKYnRHtLiQ\"\n",
      "\u001b[1mImportant: the default model was recently changed to `htdemucs`\u001b[0m the latest Hybrid Transformer Demucs model. In some cases, this model can actually perform worse than previous models. To get back the old default model use `-n mdx_extra_q`.\n",
      "Selected model is a bag of 1 models. You will see that many progress bars per track.\n",
      "Separated tracks will be stored in /Users/lyfan/Desktop/data/processed_results/5fKYnRHtLiQ/htdemucs\n",
      "Separating track /Users/lyfan/Desktop/data/processed_results/5fKYnRHtLiQ/audio.wav\n"
     ]
    },
    {
     "name": "stderr",
     "output_type": "stream",
     "text": [
      "100%|██████████████████████████████████████████████| 163.79999999999998/163.79999999999998 [01:00<00:00,  2.71seconds/s]\n"
     ]
    },
    {
     "name": "stdout",
     "output_type": "stream",
     "text": [
      "frame_0000.jpg: A screenshot shows a discussion on an internet forum\n",
      "frame_0020.jpg: A person is speaking in front of a bookshelf during an interview\n",
      "frame_0040.jpg: A group of people wearing helmets and masks gather outdoors\n",
      "frame_0060.jpg: 4. The same person continues their discussion from a different angle\n",
      "frame_0080.jpg: 5. Another person gestures while speaking in a formal setting\n",
      "frame_0100.jpg: 6. A woman delivers a speech at a podium in a congressional chamber\n",
      "frame_0120.jpg: A crowd gathers near a government building with flags and banners\n",
      "frame_0140.jpg: A person walks past a memorial with crosses and flowers\n",
      "Saved captions to /Users/lyfan/Desktop/data/processed_results/5fKYnRHtLiQ/videollama_captions.json\n",
      "\n",
      "=== Processing 7/20: WjWvdmYcZDI ===\n",
      "[INFO] Downloading video: WjWvdmYcZDI\n"
     ]
    },
    {
     "name": "stderr",
     "output_type": "stream",
     "text": [
      "WARNING: [youtube] WjWvdmYcZDI: Signature extraction failed: Some formats may be missing\n",
      "         player = https://www.youtube.com/s/player/e12fbea4/player_ias.vflset/en_US/base.js\n",
      "         Please report this issue on  https://github.com/yt-dlp/yt-dlp/issues?q= , filling out the appropriate issue template. Confirm you are on the latest version using  yt-dlp -U\n",
      "WARNING: [youtube] WjWvdmYcZDI: Some web client https formats have been skipped as they are missing a url. YouTube is forcing SABR streaming for this client. See  https://github.com/yt-dlp/yt-dlp/issues/12482  for more details\n"
     ]
    },
    {
     "name": "stdout",
     "output_type": "stream",
     "text": [
      "[DOWNLOADING LOW QUALITY] WjWvdmYcZDI...\n"
     ]
    },
    {
     "name": "stderr",
     "output_type": "stream",
     "text": [
      "WARNING: [youtube] WjWvdmYcZDI: Signature extraction failed: Some formats may be missing\n",
      "         player = https://www.youtube.com/s/player/e12fbea4/player_ias.vflset/en_US/base.js\n",
      "         Please report this issue on  https://github.com/yt-dlp/yt-dlp/issues?q= , filling out the appropriate issue template. Confirm you are on the latest version using  yt-dlp -U\n",
      "WARNING: [youtube] WjWvdmYcZDI: Some web client https formats have been skipped as they are missing a url. YouTube is forcing SABR streaming for this client. See  https://github.com/yt-dlp/yt-dlp/issues/12482  for more details\n",
      "ERROR: [youtube] WjWvdmYcZDI: Requested format is not available. Use --list-formats for a list of available formats\n"
     ]
    },
    {
     "name": "stdout",
     "output_type": "stream",
     "text": [
      "[ERROR] Failed to download WjWvdmYcZDI: ERROR: [youtube] WjWvdmYcZDI: Requested format is not available. Use --list-formats for a list of available formats\n",
      "[ABORT] Processing failed for WjWvdmYcZDI. Reason:\n",
      "Video download failed or file not found: /Users/lyfan/Desktop/data/youtube_videos/short/WjWvdmYcZDI.mp4\n",
      "Skipping this video and continuing with the next one.\n",
      "\n",
      "=== Processing 8/20: 6Fjs9ZU1f1w ===\n",
      "[INFO] Downloading video: 6Fjs9ZU1f1w\n",
      "[DOWNLOADING LOW QUALITY] 6Fjs9ZU1f1w...\n",
      "[SUCCESS] Downloaded 6Fjs9ZU1f1w\n",
      "[WARN] No YouTube transcript found for 6Fjs9ZU1f1w, falling back to Whisper...\n"
     ]
    },
    {
     "name": "stderr",
     "output_type": "stream",
     "text": [
      "/Users/lyfan/Library/Python/3.9/lib/python/site-packages/whisper/transcribe.py:126: UserWarning: FP16 is not supported on CPU; using FP32 instead\n",
      "  warnings.warn(\"FP16 is not supported on CPU; using FP32 instead\")\n"
     ]
    },
    {
     "name": "stdout",
     "output_type": "stream",
     "text": [
      "Detected language: Hindi\n"
     ]
    },
    {
     "name": "stderr",
     "output_type": "stream",
     "text": [
      "100%|██████████| 4126/4126 [00:14<00:00, 276.48frames/s]\n",
      "ffmpeg version 7.1.1 Copyright (c) 2000-2025 the FFmpeg developers\n",
      "  built with Apple clang version 17.0.0 (clang-1700.0.13.3)\n",
      "  configuration: --prefix=/opt/homebrew/Cellar/ffmpeg/7.1.1_3 --enable-shared --enable-pthreads --enable-version3 --cc=clang --host-cflags= --host-ldflags='-Wl,-ld_classic' --enable-ffplay --enable-gnutls --enable-gpl --enable-libaom --enable-libaribb24 --enable-libbluray --enable-libdav1d --enable-libharfbuzz --enable-libjxl --enable-libmp3lame --enable-libopus --enable-librav1e --enable-librist --enable-librubberband --enable-libsnappy --enable-libsrt --enable-libssh --enable-libsvtav1 --enable-libtesseract --enable-libtheora --enable-libvidstab --enable-libvmaf --enable-libvorbis --enable-libvpx --enable-libwebp --enable-libx264 --enable-libx265 --enable-libxml2 --enable-libxvid --enable-lzma --enable-libfontconfig --enable-libfreetype --enable-frei0r --enable-libass --enable-libopencore-amrnb --enable-libopencore-amrwb --enable-libopenjpeg --enable-libspeex --enable-libsoxr --enable-libzmq --enable-libzimg --disable-libjack --disable-indev=jack --enable-videotoolbox --enable-audiotoolbox --enable-neon\n",
      "  libavutil      59. 39.100 / 59. 39.100\n",
      "  libavcodec     61. 19.101 / 61. 19.101\n",
      "  libavformat    61.  7.100 / 61.  7.100\n",
      "  libavdevice    61.  3.100 / 61.  3.100\n",
      "  libavfilter    10.  4.100 / 10.  4.100\n",
      "  libswscale      8.  3.100 /  8.  3.100\n",
      "  libswresample   5.  3.100 /  5.  3.100\n",
      "  libpostproc    58.  3.100 / 58.  3.100\n",
      "Input #0, mov,mp4,m4a,3gp,3g2,mj2, from '/Users/lyfan/Desktop/data/youtube_videos/short/6Fjs9ZU1f1w.mp4':\n",
      "  Metadata:\n",
      "    major_brand     : isom\n",
      "    minor_version   : 512\n",
      "    compatible_brands: isomiso2mp41\n",
      "    encoder         : Lavf61.7.100\n",
      "  Duration: 00:00:41.26, start: 0.000000, bitrate: 157 kb/s\n",
      "  Stream #0:0[0x1](und): Video: vp9 (Profile 0) (vp09 / 0x39307076), yuv420p(tv, bt709), 144x256, 25 kb/s, 14.99 fps, 30 tbr, 16k tbn (default)\n",
      "      Metadata:\n",
      "        handler_name    : ISO Media file produced by Google Inc. Created on: 07/02/2025.\n",
      "        vendor_id       : [0][0][0][0]\n",
      "  Stream #0:1[0x2](eng): Audio: aac (LC) (mp4a / 0x6134706D), 44100 Hz, stereo, fltp, 127 kb/s (default)\n",
      "      Metadata:\n",
      "        handler_name    : ISO Media file produced by Google Inc.\n",
      "        vendor_id       : [0][0][0][0]\n",
      "Stream mapping:\n",
      "  Stream #0:1 -> #0:0 (aac (native) -> pcm_s16le (native))\n",
      "Press [q] to stop, [?] for help\n",
      "Output #0, wav, to '/Users/lyfan/Desktop/data/processed_results/6Fjs9ZU1f1w/audio.wav':\n",
      "  Metadata:\n",
      "    major_brand     : isom\n",
      "    minor_version   : 512\n",
      "    compatible_brands: isomiso2mp41\n",
      "    ISFT            : Lavf61.7.100\n",
      "  Stream #0:0(eng): Audio: pcm_s16le ([1][0][0][0] / 0x0001), 44100 Hz, stereo, s16, 1411 kb/s (default)\n",
      "      Metadata:\n",
      "        handler_name    : ISO Media file produced by Google Inc.\n",
      "        vendor_id       : [0][0][0][0]\n",
      "        encoder         : Lavc61.19.101 pcm_s16le\n",
      "[out#0/wav @ 0x141e34ca0] video:0KiB audio:7108KiB subtitle:0KiB other streams:0KiB global headers:0KiB muxing overhead: 0.001072%\n",
      "size=    7108KiB time=00:00:41.26 bitrate=1411.2kbits/s speed=1.46e+03x    \n"
     ]
    },
    {
     "name": "stdout",
     "output_type": "stream",
     "text": [
      "[INFO] Whisper transcript used for 6Fjs9ZU1f1w\n",
      "Extracting audio: ffmpeg -y -i \"/Users/lyfan/Desktop/data/youtube_videos/short/6Fjs9ZU1f1w.mp4\" -vn -acodec pcm_s16le -ar 44100 -ac 2 \"/Users/lyfan/Desktop/data/processed_results/6Fjs9ZU1f1w/audio.wav\"\n",
      "Running demucs command: demucs --two-stems=vocals \"/Users/lyfan/Desktop/data/processed_results/6Fjs9ZU1f1w/audio.wav\" -o \"/Users/lyfan/Desktop/data/processed_results/6Fjs9ZU1f1w\"\n",
      "\u001b[1mImportant: the default model was recently changed to `htdemucs`\u001b[0m the latest Hybrid Transformer Demucs model. In some cases, this model can actually perform worse than previous models. To get back the old default model use `-n mdx_extra_q`.\n",
      "Selected model is a bag of 1 models. You will see that many progress bars per track.\n",
      "Separated tracks will be stored in /Users/lyfan/Desktop/data/processed_results/6Fjs9ZU1f1w/htdemucs\n",
      "Separating track /Users/lyfan/Desktop/data/processed_results/6Fjs9ZU1f1w/audio.wav\n"
     ]
    },
    {
     "name": "stderr",
     "output_type": "stream",
     "text": [
      "100%|██████████████████████████████████████████████████████████████████████████| 46.8/46.8 [00:17<00:00,  2.63seconds/s]\n"
     ]
    },
    {
     "name": "stdout",
     "output_type": "stream",
     "text": [
      "frame_0000.jpg: The man gestures with his hand in a thoughtful pose\n",
      "frame_0020.jpg: A person smiles while text on the image discusses cookies and tracking\n",
      "frame_0040.jpg: The individual taps their forehead, suggesting an idea or insight\n",
      "Saved captions to /Users/lyfan/Desktop/data/processed_results/6Fjs9ZU1f1w/videollama_captions.json\n",
      "\n",
      "=== Processing 9/20: SSVrGnFsgbs ===\n",
      "[INFO] Downloading video: SSVrGnFsgbs\n",
      "[DOWNLOADING LOW QUALITY] SSVrGnFsgbs...\n",
      "[SUCCESS] Downloaded SSVrGnFsgbs\n",
      "[INFO] YouTube transcript used for SSVrGnFsgbs\n",
      "Extracting audio: ffmpeg -y -i \"/Users/lyfan/Desktop/data/youtube_videos/short/SSVrGnFsgbs.mp4\" -vn -acodec pcm_s16le -ar 44100 -ac 2 \"/Users/lyfan/Desktop/data/processed_results/SSVrGnFsgbs/audio.wav\"\n",
      "Running demucs command: demucs --two-stems=vocals \"/Users/lyfan/Desktop/data/processed_results/SSVrGnFsgbs/audio.wav\" -o \"/Users/lyfan/Desktop/data/processed_results/SSVrGnFsgbs\"\n"
     ]
    },
    {
     "name": "stderr",
     "output_type": "stream",
     "text": [
      "ffmpeg version 7.1.1 Copyright (c) 2000-2025 the FFmpeg developers\n",
      "  built with Apple clang version 17.0.0 (clang-1700.0.13.3)\n",
      "  configuration: --prefix=/opt/homebrew/Cellar/ffmpeg/7.1.1_3 --enable-shared --enable-pthreads --enable-version3 --cc=clang --host-cflags= --host-ldflags='-Wl,-ld_classic' --enable-ffplay --enable-gnutls --enable-gpl --enable-libaom --enable-libaribb24 --enable-libbluray --enable-libdav1d --enable-libharfbuzz --enable-libjxl --enable-libmp3lame --enable-libopus --enable-librav1e --enable-librist --enable-librubberband --enable-libsnappy --enable-libsrt --enable-libssh --enable-libsvtav1 --enable-libtesseract --enable-libtheora --enable-libvidstab --enable-libvmaf --enable-libvorbis --enable-libvpx --enable-libwebp --enable-libx264 --enable-libx265 --enable-libxml2 --enable-libxvid --enable-lzma --enable-libfontconfig --enable-libfreetype --enable-frei0r --enable-libass --enable-libopencore-amrnb --enable-libopencore-amrwb --enable-libopenjpeg --enable-libspeex --enable-libsoxr --enable-libzmq --enable-libzimg --disable-libjack --disable-indev=jack --enable-videotoolbox --enable-audiotoolbox --enable-neon\n",
      "  libavutil      59. 39.100 / 59. 39.100\n",
      "  libavcodec     61. 19.101 / 61. 19.101\n",
      "  libavformat    61.  7.100 / 61.  7.100\n",
      "  libavdevice    61.  3.100 / 61.  3.100\n",
      "  libavfilter    10.  4.100 / 10.  4.100\n",
      "  libswscale      8.  3.100 /  8.  3.100\n",
      "  libswresample   5.  3.100 /  5.  3.100\n",
      "  libpostproc    58.  3.100 / 58.  3.100\n",
      "Input #0, mov,mp4,m4a,3gp,3g2,mj2, from '/Users/lyfan/Desktop/data/youtube_videos/short/SSVrGnFsgbs.mp4':\n",
      "  Metadata:\n",
      "    major_brand     : isom\n",
      "    minor_version   : 512\n",
      "    compatible_brands: isomiso2mp41\n",
      "    encoder         : Lavf61.7.100\n",
      "  Duration: 00:00:59.68, start: 0.000000, bitrate: 163 kb/s\n",
      "  Stream #0:0[0x1](und): Video: vp9 (Profile 0) (vp09 / 0x39307076), yuv420p(tv, bt709), 144x256, 31 kb/s, 15 fps, 15 tbr, 16k tbn (default)\n",
      "      Metadata:\n",
      "        handler_name    : ISO Media file produced by Google Inc. Created on: 07/02/2025.\n",
      "        vendor_id       : [0][0][0][0]\n",
      "  Stream #0:1[0x2](und): Audio: aac (LC) (mp4a / 0x6134706D), 44100 Hz, stereo, fltp, 128 kb/s (default)\n",
      "      Metadata:\n",
      "        handler_name    : ISO Media file produced by Google Inc.\n",
      "        vendor_id       : [0][0][0][0]\n",
      "Stream mapping:\n",
      "  Stream #0:1 -> #0:0 (aac (native) -> pcm_s16le (native))\n",
      "Press [q] to stop, [?] for help\n",
      "Output #0, wav, to '/Users/lyfan/Desktop/data/processed_results/SSVrGnFsgbs/audio.wav':\n",
      "  Metadata:\n",
      "    major_brand     : isom\n",
      "    minor_version   : 512\n",
      "    compatible_brands: isomiso2mp41\n",
      "    ISFT            : Lavf61.7.100\n",
      "  Stream #0:0(und): Audio: pcm_s16le ([1][0][0][0] / 0x0001), 44100 Hz, stereo, s16, 1411 kb/s (default)\n",
      "      Metadata:\n",
      "        handler_name    : ISO Media file produced by Google Inc.\n",
      "        vendor_id       : [0][0][0][0]\n",
      "        encoder         : Lavc61.19.101 pcm_s16le\n",
      "[out#0/wav @ 0x123734b60] video:0KiB audio:10280KiB subtitle:0KiB other streams:0KiB global headers:0KiB muxing overhead: 0.000741%\n",
      "size=   10280KiB time=00:00:59.67 bitrate=1411.2kbits/s speed=1.19e+03x    \n"
     ]
    },
    {
     "name": "stdout",
     "output_type": "stream",
     "text": [
      "\u001b[1mImportant: the default model was recently changed to `htdemucs`\u001b[0m the latest Hybrid Transformer Demucs model. In some cases, this model can actually perform worse than previous models. To get back the old default model use `-n mdx_extra_q`.\n",
      "Selected model is a bag of 1 models. You will see that many progress bars per track.\n",
      "Separated tracks will be stored in /Users/lyfan/Desktop/data/processed_results/SSVrGnFsgbs/htdemucs\n",
      "Separating track /Users/lyfan/Desktop/data/processed_results/SSVrGnFsgbs/audio.wav\n"
     ]
    },
    {
     "name": "stderr",
     "output_type": "stream",
     "text": [
      "100%|████████████████████████████████████████████████████████████████████████| 64.35/64.35 [00:24<00:00,  2.64seconds/s]\n"
     ]
    },
    {
     "name": "stdout",
     "output_type": "stream",
     "text": [
      "frame_0000.jpg: [\"A person discusses a water-powered engine.\", \"The speaker explains how water is broken apart to power the engine.\", \"The concept releases only water vapor into the air.\"]\n",
      "Saved captions to /Users/lyfan/Desktop/data/processed_results/SSVrGnFsgbs/videollama_captions.json\n",
      "\n",
      "=== Processing 10/20: hB0p43Ezx0M ===\n",
      "[INFO] Downloading video: hB0p43Ezx0M\n",
      "[DOWNLOADING LOW QUALITY] hB0p43Ezx0M...\n",
      "[SUCCESS] Downloaded hB0p43Ezx0M\n",
      "[INFO] YouTube transcript used for hB0p43Ezx0M\n",
      "Extracting audio: ffmpeg -y -i \"/Users/lyfan/Desktop/data/youtube_videos/short/hB0p43Ezx0M.mp4\" -vn -acodec pcm_s16le -ar 44100 -ac 2 \"/Users/lyfan/Desktop/data/processed_results/hB0p43Ezx0M/audio.wav\"\n",
      "Running demucs command: demucs --two-stems=vocals \"/Users/lyfan/Desktop/data/processed_results/hB0p43Ezx0M/audio.wav\" -o \"/Users/lyfan/Desktop/data/processed_results/hB0p43Ezx0M\"\n"
     ]
    },
    {
     "name": "stderr",
     "output_type": "stream",
     "text": [
      "ffmpeg version 7.1.1 Copyright (c) 2000-2025 the FFmpeg developers\n",
      "  built with Apple clang version 17.0.0 (clang-1700.0.13.3)\n",
      "  configuration: --prefix=/opt/homebrew/Cellar/ffmpeg/7.1.1_3 --enable-shared --enable-pthreads --enable-version3 --cc=clang --host-cflags= --host-ldflags='-Wl,-ld_classic' --enable-ffplay --enable-gnutls --enable-gpl --enable-libaom --enable-libaribb24 --enable-libbluray --enable-libdav1d --enable-libharfbuzz --enable-libjxl --enable-libmp3lame --enable-libopus --enable-librav1e --enable-librist --enable-librubberband --enable-libsnappy --enable-libsrt --enable-libssh --enable-libsvtav1 --enable-libtesseract --enable-libtheora --enable-libvidstab --enable-libvmaf --enable-libvorbis --enable-libvpx --enable-libwebp --enable-libx264 --enable-libx265 --enable-libxml2 --enable-libxvid --enable-lzma --enable-libfontconfig --enable-libfreetype --enable-frei0r --enable-libass --enable-libopencore-amrnb --enable-libopencore-amrwb --enable-libopenjpeg --enable-libspeex --enable-libsoxr --enable-libzmq --enable-libzimg --disable-libjack --disable-indev=jack --enable-videotoolbox --enable-audiotoolbox --enable-neon\n",
      "  libavutil      59. 39.100 / 59. 39.100\n",
      "  libavcodec     61. 19.101 / 61. 19.101\n",
      "  libavformat    61.  7.100 / 61.  7.100\n",
      "  libavdevice    61.  3.100 / 61.  3.100\n",
      "  libavfilter    10.  4.100 / 10.  4.100\n",
      "  libswscale      8.  3.100 /  8.  3.100\n",
      "  libswresample   5.  3.100 /  5.  3.100\n",
      "  libpostproc    58.  3.100 / 58.  3.100\n",
      "Input #0, mov,mp4,m4a,3gp,3g2,mj2, from '/Users/lyfan/Desktop/data/youtube_videos/short/hB0p43Ezx0M.mp4':\n",
      "  Metadata:\n",
      "    major_brand     : isom\n",
      "    minor_version   : 512\n",
      "    compatible_brands: isomiso2mp41\n",
      "    encoder         : Lavf61.7.100\n",
      "  Duration: 00:00:59.81, start: 0.000000, bitrate: 157 kb/s\n",
      "  Stream #0:0[0x1](und): Video: vp9 (Profile 0) (vp09 / 0x39307076), yuv420p(tv, bt709), 144x256, 25 kb/s, 15.01 fps, 15 tbr, 16k tbn (default)\n",
      "      Metadata:\n",
      "        handler_name    : ISO Media file produced by Google Inc. Created on: 07/02/2025.\n",
      "        vendor_id       : [0][0][0][0]\n",
      "  Stream #0:1[0x2](und): Audio: aac (LC) (mp4a / 0x6134706D), 44100 Hz, stereo, fltp, 128 kb/s (default)\n",
      "      Metadata:\n",
      "        handler_name    : ISO Media file produced by Google Inc.\n",
      "        vendor_id       : [0][0][0][0]\n",
      "Stream mapping:\n",
      "  Stream #0:1 -> #0:0 (aac (native) -> pcm_s16le (native))\n",
      "Press [q] to stop, [?] for help\n",
      "Output #0, wav, to '/Users/lyfan/Desktop/data/processed_results/hB0p43Ezx0M/audio.wav':\n",
      "  Metadata:\n",
      "    major_brand     : isom\n",
      "    minor_version   : 512\n",
      "    compatible_brands: isomiso2mp41\n",
      "    ISFT            : Lavf61.7.100\n",
      "  Stream #0:0(und): Audio: pcm_s16le ([1][0][0][0] / 0x0001), 44100 Hz, stereo, s16, 1411 kb/s (default)\n",
      "      Metadata:\n",
      "        handler_name    : ISO Media file produced by Google Inc.\n",
      "        vendor_id       : [0][0][0][0]\n",
      "        encoder         : Lavc61.19.101 pcm_s16le\n",
      "[out#0/wav @ 0x10fe04150] video:0KiB audio:10304KiB subtitle:0KiB other streams:0KiB global headers:0KiB muxing overhead: 0.000739%\n",
      "size=   10304KiB time=00:00:59.81 bitrate=1411.2kbits/s speed=1.2e+03x    \n"
     ]
    },
    {
     "name": "stdout",
     "output_type": "stream",
     "text": [
      "\u001b[1mImportant: the default model was recently changed to `htdemucs`\u001b[0m the latest Hybrid Transformer Demucs model. In some cases, this model can actually perform worse than previous models. To get back the old default model use `-n mdx_extra_q`.\n",
      "Selected model is a bag of 1 models. You will see that many progress bars per track.\n",
      "Separated tracks will be stored in /Users/lyfan/Desktop/data/processed_results/hB0p43Ezx0M/htdemucs\n",
      "Separating track /Users/lyfan/Desktop/data/processed_results/hB0p43Ezx0M/audio.wav\n"
     ]
    },
    {
     "name": "stderr",
     "output_type": "stream",
     "text": [
      "100%|████████████████████████████████████████████████████████████████████████| 64.35/64.35 [00:24<00:00,  2.65seconds/s]\n"
     ]
    },
    {
     "name": "stdout",
     "output_type": "stream",
     "text": [
      "frame_0000.jpg: \"Do 10% of developers do *nothing*?\"\n",
      "frame_0020.jpg: \"A tweet highlights 'ghost engineers' who avoid making changes.\"\n",
      "frame_0040.jpg: \"Exploring the idea of being paged for doing minimal work.\"\n",
      "Saved captions to /Users/lyfan/Desktop/data/processed_results/hB0p43Ezx0M/videollama_captions.json\n",
      "\n",
      "=== Processing 11/20: d4JdPY4n0Qg ===\n",
      "[INFO] Downloading video: d4JdPY4n0Qg\n",
      "[DOWNLOADING LOW QUALITY] d4JdPY4n0Qg...\n"
     ]
    },
    {
     "name": "stderr",
     "output_type": "stream",
     "text": [
      "WARNING: [youtube] d4JdPY4n0Qg: Some tv client https formats have been skipped as they are DRM protected. The current session may have an experiment that applies DRM to all videos on the tv client. See  https://github.com/yt-dlp/yt-dlp/issues/12563  for more details.\n",
      "WARNING: [youtube] d4JdPY4n0Qg: Some web client https formats have been skipped as they are missing a url. YouTube is forcing SABR streaming for this client. See  https://github.com/yt-dlp/yt-dlp/issues/12482  for more details\n"
     ]
    },
    {
     "name": "stdout",
     "output_type": "stream",
     "text": [
      "[SUCCESS] Downloaded d4JdPY4n0Qg\n",
      "[WARN] No YouTube transcript found for d4JdPY4n0Qg, falling back to Whisper...\n"
     ]
    },
    {
     "name": "stderr",
     "output_type": "stream",
     "text": [
      "/Users/lyfan/Library/Python/3.9/lib/python/site-packages/whisper/transcribe.py:126: UserWarning: FP16 is not supported on CPU; using FP32 instead\n",
      "  warnings.warn(\"FP16 is not supported on CPU; using FP32 instead\")\n"
     ]
    },
    {
     "name": "stdout",
     "output_type": "stream",
     "text": [
      "Detected language: Nynorsk\n"
     ]
    },
    {
     "name": "stderr",
     "output_type": "stream",
     "text": [
      "100%|██████████| 1879/1879 [00:05<00:00, 336.41frames/s]\n",
      "ffmpeg version 7.1.1 Copyright (c) 2000-2025 the FFmpeg developers\n",
      "  built with Apple clang version 17.0.0 (clang-1700.0.13.3)\n",
      "  configuration: --prefix=/opt/homebrew/Cellar/ffmpeg/7.1.1_3 --enable-shared --enable-pthreads --enable-version3 --cc=clang --host-cflags= --host-ldflags='-Wl,-ld_classic' --enable-ffplay --enable-gnutls --enable-gpl --enable-libaom --enable-libaribb24 --enable-libbluray --enable-libdav1d --enable-libharfbuzz --enable-libjxl --enable-libmp3lame --enable-libopus --enable-librav1e --enable-librist --enable-librubberband --enable-libsnappy --enable-libsrt --enable-libssh --enable-libsvtav1 --enable-libtesseract --enable-libtheora --enable-libvidstab --enable-libvmaf --enable-libvorbis --enable-libvpx --enable-libwebp --enable-libx264 --enable-libx265 --enable-libxml2 --enable-libxvid --enable-lzma --enable-libfontconfig --enable-libfreetype --enable-frei0r --enable-libass --enable-libopencore-amrnb --enable-libopencore-amrwb --enable-libopenjpeg --enable-libspeex --enable-libsoxr --enable-libzmq --enable-libzimg --disable-libjack --disable-indev=jack --enable-videotoolbox --enable-audiotoolbox --enable-neon\n",
      "  libavutil      59. 39.100 / 59. 39.100\n",
      "  libavcodec     61. 19.101 / 61. 19.101\n",
      "  libavformat    61.  7.100 / 61.  7.100\n",
      "  libavdevice    61.  3.100 / 61.  3.100\n",
      "  libavfilter    10.  4.100 / 10.  4.100\n",
      "  libswscale      8.  3.100 /  8.  3.100\n",
      "  libswresample   5.  3.100 /  5.  3.100\n",
      "  libpostproc    58.  3.100 / 58.  3.100\n",
      "Input #0, mov,mp4,m4a,3gp,3g2,mj2, from '/Users/lyfan/Desktop/data/youtube_videos/short/d4JdPY4n0Qg.mp4':\n",
      "  Metadata:\n",
      "    major_brand     : mp42\n",
      "    minor_version   : 0\n",
      "    compatible_brands: isommp42\n",
      "    encoder         : Google\n",
      "  Duration: 00:00:18.79, start: 0.000000, bitrate: 603 kb/s\n",
      "  Stream #0:0[0x1](und): Video: h264 (Constrained Baseline) (avc1 / 0x31637661), yuv420p(tv, bt709, progressive), 360x640 [SAR 1:1 DAR 9:16], 409 kb/s, 30 fps, 30 tbr, 15360 tbn (default)\n",
      "      Metadata:\n",
      "        handler_name    : ISO Media file produced by Google Inc.\n",
      "        vendor_id       : [0][0][0][0]\n",
      "  Stream #0:1[0x2](und): Audio: aac (LC) (mp4a / 0x6134706D), 48000 Hz, stereo, fltp, 192 kb/s (default)\n",
      "      Metadata:\n",
      "        handler_name    : ISO Media file produced by Google Inc.\n",
      "        vendor_id       : [0][0][0][0]\n",
      "Stream mapping:\n",
      "  Stream #0:1 -> #0:0 (aac (native) -> pcm_s16le (native))\n",
      "Press [q] to stop, [?] for help\n",
      "Output #0, wav, to '/Users/lyfan/Desktop/data/processed_results/d4JdPY4n0Qg/audio.wav':\n",
      "  Metadata:\n",
      "    major_brand     : mp42\n",
      "    minor_version   : 0\n",
      "    compatible_brands: isommp42\n",
      "    ISFT            : Lavf61.7.100\n",
      "  Stream #0:0(und): Audio: pcm_s16le ([1][0][0][0] / 0x0001), 44100 Hz, stereo, s16, 1411 kb/s (default)\n",
      "      Metadata:\n",
      "        handler_name    : ISO Media file produced by Google Inc.\n",
      "        vendor_id       : [0][0][0][0]\n",
      "        encoder         : Lavc61.19.101 pcm_s16le\n",
      "[out#0/wav @ 0x139646d10] video:0KiB audio:3238KiB subtitle:0KiB other streams:0KiB global headers:0KiB muxing overhead: 0.002353%\n",
      "size=    3238KiB time=00:00:18.79 bitrate=1411.2kbits/s speed= 917x    \n"
     ]
    },
    {
     "name": "stdout",
     "output_type": "stream",
     "text": [
      "[INFO] Whisper transcript used for d4JdPY4n0Qg\n",
      "Extracting audio: ffmpeg -y -i \"/Users/lyfan/Desktop/data/youtube_videos/short/d4JdPY4n0Qg.mp4\" -vn -acodec pcm_s16le -ar 44100 -ac 2 \"/Users/lyfan/Desktop/data/processed_results/d4JdPY4n0Qg/audio.wav\"\n",
      "Running demucs command: demucs --two-stems=vocals \"/Users/lyfan/Desktop/data/processed_results/d4JdPY4n0Qg/audio.wav\" -o \"/Users/lyfan/Desktop/data/processed_results/d4JdPY4n0Qg\"\n",
      "\u001b[1mImportant: the default model was recently changed to `htdemucs`\u001b[0m the latest Hybrid Transformer Demucs model. In some cases, this model can actually perform worse than previous models. To get back the old default model use `-n mdx_extra_q`.\n",
      "Selected model is a bag of 1 models. You will see that many progress bars per track.\n",
      "Separated tracks will be stored in /Users/lyfan/Desktop/data/processed_results/d4JdPY4n0Qg/htdemucs\n",
      "Separating track /Users/lyfan/Desktop/data/processed_results/d4JdPY4n0Qg/audio.wav\n"
     ]
    },
    {
     "name": "stderr",
     "output_type": "stream",
     "text": [
      "100%|██████████████████████████████████████████████████████████████████████████| 23.4/23.4 [00:09<00:00,  2.52seconds/s]\n"
     ]
    },
    {
     "name": "stdout",
     "output_type": "stream",
     "text": [
      "frame_0000.jpg: \"A tal amount of blue paperclips are neatly arranged in rows on a white surface.\"\n",
      "Saved captions to /Users/lyfan/Desktop/data/processed_results/d4JdPY4n0Qg/videollama_captions.json\n",
      "\n",
      "=== Processing 12/20: wqntEFzNd1g ===\n",
      "[INFO] Downloading video: wqntEFzNd1g\n"
     ]
    },
    {
     "name": "stderr",
     "output_type": "stream",
     "text": [
      "ERROR: [youtube] wqntEFzNd1g: Video unavailable. This video contains content from SME, who has blocked it in your country on copyright grounds\n"
     ]
    },
    {
     "name": "stdout",
     "output_type": "stream",
     "text": [
      "[SKIPPED] wqntEFzNd1g is unavailable.\n",
      "[ABORT] Processing failed for wqntEFzNd1g. Reason:\n",
      "Video download failed or file not found: /Users/lyfan/Desktop/data/youtube_videos/short/wqntEFzNd1g.mp4\n",
      "Skipping this video and continuing with the next one.\n",
      "\n",
      "=== Processing 13/20: bAqQeq2M-LM ===\n",
      "[INFO] Downloading video: bAqQeq2M-LM\n",
      "[DOWNLOADING LOW QUALITY] bAqQeq2M-LM...\n",
      "[SUCCESS] Downloaded bAqQeq2M-LM\n",
      "[WARN] No YouTube transcript found for bAqQeq2M-LM, falling back to Whisper...\n"
     ]
    },
    {
     "name": "stderr",
     "output_type": "stream",
     "text": [
      "/Users/lyfan/Library/Python/3.9/lib/python/site-packages/whisper/transcribe.py:126: UserWarning: FP16 is not supported on CPU; using FP32 instead\n",
      "  warnings.warn(\"FP16 is not supported on CPU; using FP32 instead\")\n"
     ]
    },
    {
     "name": "stdout",
     "output_type": "stream",
     "text": [
      "Detected language: Nynorsk\n"
     ]
    },
    {
     "name": "stderr",
     "output_type": "stream",
     "text": [
      "100%|██████████| 1304/1304 [00:05<00:00, 236.39frames/s]\n",
      "ffmpeg version 7.1.1 Copyright (c) 2000-2025 the FFmpeg developers\n",
      "  built with Apple clang version 17.0.0 (clang-1700.0.13.3)\n",
      "  configuration: --prefix=/opt/homebrew/Cellar/ffmpeg/7.1.1_3 --enable-shared --enable-pthreads --enable-version3 --cc=clang --host-cflags= --host-ldflags='-Wl,-ld_classic' --enable-ffplay --enable-gnutls --enable-gpl --enable-libaom --enable-libaribb24 --enable-libbluray --enable-libdav1d --enable-libharfbuzz --enable-libjxl --enable-libmp3lame --enable-libopus --enable-librav1e --enable-librist --enable-librubberband --enable-libsnappy --enable-libsrt --enable-libssh --enable-libsvtav1 --enable-libtesseract --enable-libtheora --enable-libvidstab --enable-libvmaf --enable-libvorbis --enable-libvpx --enable-libwebp --enable-libx264 --enable-libx265 --enable-libxml2 --enable-libxvid --enable-lzma --enable-libfontconfig --enable-libfreetype --enable-frei0r --enable-libass --enable-libopencore-amrnb --enable-libopencore-amrwb --enable-libopenjpeg --enable-libspeex --enable-libsoxr --enable-libzmq --enable-libzimg --disable-libjack --disable-indev=jack --enable-videotoolbox --enable-audiotoolbox --enable-neon\n",
      "  libavutil      59. 39.100 / 59. 39.100\n",
      "  libavcodec     61. 19.101 / 61. 19.101\n",
      "  libavformat    61.  7.100 / 61.  7.100\n",
      "  libavdevice    61.  3.100 / 61.  3.100\n",
      "  libavfilter    10.  4.100 / 10.  4.100\n",
      "  libswscale      8.  3.100 /  8.  3.100\n",
      "  libswresample   5.  3.100 /  5.  3.100\n",
      "  libpostproc    58.  3.100 / 58.  3.100\n",
      "Input #0, mov,mp4,m4a,3gp,3g2,mj2, from '/Users/lyfan/Desktop/data/youtube_videos/short/bAqQeq2M-LM.mp4':\n",
      "  Metadata:\n",
      "    major_brand     : isom\n",
      "    minor_version   : 512\n",
      "    compatible_brands: isomiso2mp41\n",
      "    encoder         : Lavf61.7.100\n",
      "  Duration: 00:00:13.05, start: 0.000000, bitrate: 158 kb/s\n",
      "  Stream #0:0[0x1](und): Video: vp9 (Profile 0) (vp09 / 0x39307076), yuv420p(tv, bt709), 144x256, 25 kb/s, 15.04 fps, 30 tbr, 16k tbn (default)\n",
      "      Metadata:\n",
      "        handler_name    : ISO Media file produced by Google Inc. Created on: 07/02/2025.\n",
      "        vendor_id       : [0][0][0][0]\n",
      "  Stream #0:1[0x2](und): Audio: aac (LC) (mp4a / 0x6134706D), 44100 Hz, stereo, fltp, 128 kb/s (default)\n",
      "      Metadata:\n",
      "        handler_name    : ISO Media file produced by Google Inc.\n",
      "        vendor_id       : [0][0][0][0]\n",
      "Stream mapping:\n",
      "  Stream #0:1 -> #0:0 (aac (native) -> pcm_s16le (native))\n",
      "Press [q] to stop, [?] for help\n",
      "Output #0, wav, to '/Users/lyfan/Desktop/data/processed_results/bAqQeq2M-LM/audio.wav':\n",
      "  Metadata:\n",
      "    major_brand     : isom\n",
      "    minor_version   : 512\n",
      "    compatible_brands: isomiso2mp41\n",
      "    ISFT            : Lavf61.7.100\n",
      "  Stream #0:0(und): Audio: pcm_s16le ([1][0][0][0] / 0x0001), 44100 Hz, stereo, s16, 1411 kb/s (default)\n",
      "      Metadata:\n",
      "        handler_name    : ISO Media file produced by Google Inc.\n",
      "        vendor_id       : [0][0][0][0]\n",
      "        encoder         : Lavc61.19.101 pcm_s16le\n",
      "[out#0/wav @ 0x146f08130] video:0KiB audio:2248KiB subtitle:0KiB other streams:0KiB global headers:0KiB muxing overhead: 0.003388%\n",
      "size=    2248KiB time=00:00:13.04 bitrate=1411.2kbits/s speed=1.51e+03x    \n"
     ]
    },
    {
     "name": "stdout",
     "output_type": "stream",
     "text": [
      "[INFO] Whisper transcript used for bAqQeq2M-LM\n",
      "Extracting audio: ffmpeg -y -i \"/Users/lyfan/Desktop/data/youtube_videos/short/bAqQeq2M-LM.mp4\" -vn -acodec pcm_s16le -ar 44100 -ac 2 \"/Users/lyfan/Desktop/data/processed_results/bAqQeq2M-LM/audio.wav\"\n",
      "Running demucs command: demucs --two-stems=vocals \"/Users/lyfan/Desktop/data/processed_results/bAqQeq2M-LM/audio.wav\" -o \"/Users/lyfan/Desktop/data/processed_results/bAqQeq2M-LM\"\n",
      "\u001b[1mImportant: the default model was recently changed to `htdemucs`\u001b[0m the latest Hybrid Transformer Demucs model. In some cases, this model can actually perform worse than previous models. To get back the old default model use `-n mdx_extra_q`.\n",
      "Selected model is a bag of 1 models. You will see that many progress bars per track.\n",
      "Separated tracks will be stored in /Users/lyfan/Desktop/data/processed_results/bAqQeq2M-LM/htdemucs\n",
      "Separating track /Users/lyfan/Desktop/data/processed_results/bAqQeq2M-LM/audio.wav\n"
     ]
    },
    {
     "name": "stderr",
     "output_type": "stream",
     "text": [
      "100%|██████████████████████████████████████████████| 17.549999999999997/17.549999999999997 [00:07<00:00,  2.42seconds/s]\n"
     ]
    },
    {
     "name": "stdout",
     "output_type": "stream",
     "text": [
      "frame_0000.jpg: \"A creative lipstick art with emojis showcasing food and flowers.\"\n",
      "Saved captions to /Users/lyfan/Desktop/data/processed_results/bAqQeq2M-LM/videollama_captions.json\n",
      "\n",
      "Successfully processed 10 videos.\n",
      "finally success: 110\n"
     ]
    }
   ],
   "source": [
    "import json\n",
    "from pathlib import Path\n",
    "import os\n",
    "    # Configurations\n",
    "current_dir = Path.cwd()\n",
    "project_root = current_dir.parent\n",
    "base_dir = \"youtube_videos/short\"\n",
    "video_dir = project_root / base_dir  # Directory with original videos\n",
    "work_dir = project_root /\"processed_results\"  # Output dir for all results\n",
    "output_json_path = work_dir / \"final_results.json\"\n",
    "with open(work_dir / \"final_results.json\", \"r\", encoding=\"utf-8\") as f:\n",
    "    old_results = json.load(f)\n",
    "old_success_ids = set(r[\"video_id\"] for r in old_results)\n",
    "more_sampled_ids = sample_video_ids_from_dir(\n",
    "    base_dir=project_root/\"youtube_videos\"/\"short\",\n",
    "    k=20,\n",
    "    output_path=work_dir /\"sampled_more_ids.json\"\n",
    ")\n",
    "\n",
    "remaining_ids = [vid for vid in more_sampled_ids if vid not in old_success_ids]\n",
    "\n",
    "batch_process_videos(\n",
    "    video_ids=remaining_ids,\n",
    "    video_dir=video_dir,\n",
    "    work_dir=work_dir,\n",
    "    output_json_path=work_dir / \"new_results.json\", \n",
    "    max_success=10\n",
    ")\n",
    "\n",
    "with open(work_dir / \"new_results.json\", \"r\", encoding=\"utf-8\") as f:\n",
    "    new_results = json.load(f)\n",
    "all_results = old_results + new_results\n",
    "with open(work_dir / \"final_results.json\", \"w\", encoding=\"utf-8\") as f:\n",
    "    json.dump(all_results, f, ensure_ascii=False, indent=2)\n",
    "\n",
    "print(f\"finally success: {len(all_results)}\")"
   ]
  }
 ],
 "metadata": {
  "kernelspec": {
   "display_name": "Python 3",
   "language": "python",
   "name": "python3"
  },
  "language_info": {
   "codemirror_mode": {
    "name": "ipython",
    "version": 3
   },
   "file_extension": ".py",
   "mimetype": "text/x-python",
   "name": "python",
   "nbconvert_exporter": "python",
   "pygments_lexer": "ipython3",
   "version": "3.9.6"
  }
 },
 "nbformat": 4,
 "nbformat_minor": 5
}
